<svg width="24" height="21" viewBox="0 0 24 21" fill="none" xmlns="http://www.w3.org/2000/svg">
<path d="M0.857143 3.85714H23.1429C23.6163 3.85714 24 3.47341 24 3V0.857143C24 0.383732 23.6163 0 23.1429 0H0.857143C0.383732 0 0 0.383732 0 0.857143V3C0 3.47341 0.383732 3.85714 0.857143 3.85714ZM0.857143 12.4286H23.1429C23.6163 12.4286 24 12.0448 24 11.5714V9.42857C24 8.95516 23.6163 8.57143 23.1429 8.57143H0.857143C0.383732 8.57143 0 8.95516 0 9.42857V11.5714C0 12.0448 0.383732 12.4286 0.857143 12.4286ZM0.857143 21H23.1429C23.6163 21 24 20.6163 24 20.1429V18C24 17.5266 23.6163 17.1429 23.1429 17.1429H0.857143C0.383732 17.1429 0 17.5266 0 18V20.1429C0 20.6163 0.383732 21 0.857143 21Z" fill="#E84E72"/>
</svg>
