<svg width="9" height="18" viewBox="0 0 9 18" fill="none" xmlns="http://www.w3.org/2000/svg">
<path d="M8.07926 11.621C8.07926 13.6897 6.89026 14.9077 4.51226 15.275V17.624H2.91726V15.391C2.24059 15.391 1.34159 15.2943 0.220258 15.101V3.182C1.34159 2.93067 2.24059 2.79533 2.91726 2.776V0.862H4.51226V2.863C6.58092 3.19167 7.61526 4.26467 7.61526 6.082C7.61526 7.14533 7.16092 8.01533 6.25226 8.692C7.47026 9.40733 8.07926 10.3837 8.07926 11.621ZM6.42626 11.65C6.42626 10.2387 5.36293 9.533 3.23626 9.533H1.93126V13.767C2.25992 13.825 2.62726 13.854 3.03326 13.854C3.94192 13.854 4.70559 13.6897 5.32426 13.361C6.05893 12.9743 6.42626 12.404 6.42626 11.65ZM5.90426 6.111C5.90426 4.91233 4.95692 4.313 3.06226 4.313C2.94626 4.313 2.56926 4.36133 1.93126 4.458V7.938H3.52626C4.26092 7.938 4.84092 7.764 5.26626 7.416C5.69159 7.068 5.90426 6.633 5.90426 6.111Z" fill="#A1A1A1"/>
<path d="M4.51226 15.275L4.46646 14.9785L4.21226 15.0178V15.275H4.51226ZM4.51226 17.624V17.924H4.81226V17.624H4.51226ZM2.91726 17.624H2.61726V17.924H2.91726V17.624ZM2.91726 15.391H3.21726V15.091H2.91726V15.391ZM0.220258 15.101H-0.079742V15.3537L0.169286 15.3966L0.220258 15.101ZM0.220258 3.182L0.154644 2.88926L-0.079742 2.9418V3.182H0.220258ZM2.91726 2.776L2.92583 3.07588L3.21726 3.06755V2.776H2.91726ZM2.91726 0.862V0.562H2.61726V0.862H2.91726ZM4.51226 0.862H4.81226V0.562H4.51226V0.862ZM4.51226 2.863H4.21226V3.1191L4.46519 3.15928L4.51226 2.863ZM6.25226 8.692L6.07308 8.45139L5.71024 8.72158L6.10033 8.95069L6.25226 8.692ZM1.93126 9.533V9.233H1.63126V9.533H1.93126ZM1.93126 13.767H1.63126V14.0187L1.87912 14.0624L1.93126 13.767ZM5.32426 13.361L5.18453 13.0955L5.18351 13.0961L5.32426 13.361ZM1.93126 4.458L1.88632 4.16138L1.63126 4.20003V4.458H1.93126ZM1.93126 7.938H1.63126V8.238H1.93126V7.938ZM5.26626 7.416L5.45623 7.64819L5.26626 7.416ZM7.77926 11.621C7.77926 12.5949 7.50128 13.3351 6.97284 13.8764C6.43911 14.4232 5.61707 14.8008 4.46646 14.9785L4.55806 15.5715C5.78544 15.3819 6.74691 14.9668 7.40218 14.2956C8.06274 13.6189 8.37926 12.7157 8.37926 11.621H7.77926ZM4.21226 15.275V17.624H4.81226V15.275H4.21226ZM4.51226 17.324H2.91726V17.924H4.51226V17.324ZM3.21726 17.624V15.391H2.61726V17.624H3.21726ZM2.91726 15.091C2.2653 15.091 1.38542 14.9975 0.27123 14.8054L0.169286 15.3966C1.29776 15.5912 2.21589 15.691 2.91726 15.691V15.091ZM0.520258 15.101V3.182H-0.079742V15.101H0.520258ZM0.285871 3.47474C1.39948 3.22513 2.27706 3.09441 2.92583 3.07588L2.90869 2.47612C2.20412 2.49625 1.2837 2.6362 0.154644 2.88926L0.285871 3.47474ZM3.21726 2.776V0.862H2.61726V2.776H3.21726ZM2.91726 1.162H4.51226V0.562H2.91726V1.162ZM4.21226 0.862V2.863H4.81226V0.862H4.21226ZM4.46519 3.15928C5.46059 3.31743 6.1667 3.64856 6.62352 4.12245C7.07545 4.59128 7.31526 5.23295 7.31526 6.082H7.91526C7.91526 5.11371 7.6379 4.31022 7.0555 3.70604C6.47798 3.10694 5.63259 2.73723 4.55933 2.56672L4.46519 3.15928ZM7.31526 6.082C7.31526 7.04354 6.91152 7.82701 6.07308 8.45139L6.43144 8.93261C7.41033 8.20365 7.91526 7.24713 7.91526 6.082H7.31526ZM6.10033 8.95069C7.24212 9.62126 7.77926 10.5069 7.77926 11.621H8.37926C8.37926 10.2604 7.69839 9.1934 6.40418 8.43331L6.10033 8.95069ZM6.72626 11.65C6.72626 10.8564 6.42002 10.2273 5.79464 9.81229C5.1909 9.41162 4.32328 9.233 3.23626 9.233V9.833C4.27591 9.833 5.00328 10.0072 5.46287 10.3122C5.90083 10.6029 6.12626 11.0323 6.12626 11.65H6.72626ZM3.23626 9.233H1.93126V9.833H3.23626V9.233ZM1.63126 9.533V13.767H2.23126V9.533H1.63126ZM1.87912 14.0624C2.22822 14.124 2.61338 14.154 3.03326 14.154V13.554C2.64113 13.554 2.29163 13.526 1.98339 13.4716L1.87912 14.0624ZM3.03326 14.154C3.97687 14.154 4.79203 13.9835 5.465 13.6259L5.18351 13.0961C4.61915 13.3959 3.90698 13.554 3.03326 13.554V14.154ZM5.46398 13.6265C5.8669 13.4144 6.18569 13.1431 6.40297 12.8057C6.62125 12.4668 6.72626 12.078 6.72626 11.65H6.12626C6.12626 11.976 6.0476 12.2494 5.89854 12.4808C5.7485 12.7138 5.51629 12.9209 5.18453 13.0955L5.46398 13.6265ZM6.20426 6.111C6.20426 5.41737 5.92173 4.86806 5.35415 4.50898C4.80975 4.16456 4.03155 4.013 3.06226 4.013V4.613C3.98763 4.613 4.63044 4.76111 5.03337 5.01602C5.41312 5.25628 5.60426 5.60596 5.60426 6.111H6.20426ZM3.06226 4.013C2.98151 4.013 2.83841 4.02809 2.65436 4.05168C2.46257 4.07627 2.20626 4.11291 1.88632 4.16138L1.9762 4.75461C2.29426 4.70642 2.54545 4.67056 2.73066 4.64681C2.9236 4.62208 3.027 4.613 3.06226 4.613V4.013ZM1.63126 4.458V7.938H2.23126V4.458H1.63126ZM1.93126 8.238H3.52626V7.638H1.93126V8.238ZM3.52626 8.238C4.30678 8.238 4.96162 8.05287 5.45623 7.64819L5.07629 7.18381C4.72023 7.47513 4.21507 7.638 3.52626 7.638V8.238ZM5.45623 7.64819C5.94698 7.24667 6.20426 6.7283 6.20426 6.111H5.60426C5.60426 6.53769 5.43621 6.88933 5.07629 7.18381L5.45623 7.64819Z" fill="#A1A1A1"/>
</svg>
