<svg width="35" height="35" viewBox="0 0 35 35" fill="none" xmlns="http://www.w3.org/2000/svg">
<circle cx="17.5" cy="17.5" r="17" fill="white" stroke="#E84E72"/>
<path d="M27.6021 14.9531C27.7621 14.832 28 14.9453 28 15.1367V23.125C28 24.1602 27.1182 25 26.0312 25H8.96875C7.88184 25 7 24.1602 7 23.125V15.1406C7 14.9453 7.23379 14.8359 7.39785 14.957C8.3166 15.6367 9.53477 16.5 13.7184 19.3945C14.5838 19.9961 16.0439 21.2617 17.5 21.2539C18.9643 21.2656 20.4531 19.9727 21.2857 19.3945C25.4693 16.5 26.6834 15.6328 27.6021 14.9531ZM17.5 20C18.4516 20.0156 19.8215 18.8594 20.5105 18.3828C25.9533 14.6211 26.3676 14.293 27.6227 13.3555C27.8605 13.1797 28 12.9063 28 12.6172V11.875C28 10.8398 27.1182 10 26.0312 10H8.96875C7.88184 10 7 10.8398 7 11.875V12.6172C7 12.9063 7.13945 13.1758 7.37734 13.3555C8.63242 14.2891 9.04668 14.6211 14.4895 18.3828C15.1785 18.8594 16.5484 20.0156 17.5 20Z" fill="#E84E72"/>
</svg>
