<svg width="33" height="32" viewBox="0 0 33 32" fill="none" xmlns="http://www.w3.org/2000/svg">
<path d="M0.353027 30.7503C0.353027 21.8526 0.353027 12.9633 0.353027 4.06561C0.436339 3.97396 0.511319 3.88232 0.602962 3.79068C1.77766 2.61599 2.96068 1.44129 4.13538 0.258264C4.31866 0.0749784 4.51028 0 4.76854 0C10.567 0.00833116 16.3655 -2.0341e-06 22.164 0.00832913C22.2973 0.00832913 22.439 0.00833116 22.5639 0.0416558C23.3637 0.233273 23.8303 0.858109 23.8303 1.77454C23.8303 6.11507 23.8303 10.4556 23.8303 14.7961C23.8303 14.9128 23.8303 15.0294 23.8303 15.1461C23.8636 15.1544 23.8969 15.1711 23.9219 15.1794C23.9885 15.0961 24.0469 15.0128 24.1218 14.9378C25.3882 13.6714 26.6462 12.3968 27.9209 11.1388C28.7623 10.3057 30.0453 10.2473 30.8784 11.0138C31.4783 11.5637 32.1198 12.0968 32.3447 12.9383C32.3447 13.2132 32.3447 13.4798 32.3447 13.7547C32.1697 14.4046 31.7449 14.8711 31.2866 15.3293C28.8706 17.7287 26.4712 20.1448 24.0552 22.5441C23.8886 22.7108 23.8219 22.8857 23.8219 23.119C23.8303 25.485 23.8219 27.8427 23.8303 30.2088C23.8303 30.7503 23.7053 31.2502 23.2637 31.6001C23.0471 31.7667 22.7805 31.8667 22.5306 32C15.5491 32 8.57589 32 1.59437 32C0.986198 31.7917 0.569638 31.3752 0.353027 30.7503ZM1.41942 4.81541C1.41942 4.93205 1.41942 4.9987 1.41942 5.07368C1.41942 13.4632 1.41942 21.861 1.41942 30.2505C1.41942 30.7503 1.61937 30.9336 2.1359 30.9336C8.76751 30.9336 15.3991 30.9336 22.0307 30.9336C22.5639 30.9336 22.7305 30.7587 22.7305 30.2171C22.7305 28.2177 22.7305 26.2182 22.7305 24.2187C22.7305 24.1271 22.7222 24.0437 22.7139 23.9021C22.5972 24.0187 22.5139 24.0854 22.4306 24.1687C21.4725 25.1268 20.5228 26.0932 19.5564 27.0346C19.3231 27.2596 19.0315 27.4429 18.7316 27.5678C17.8735 27.9177 16.9987 28.2177 16.1406 28.5592C15.6657 28.7425 15.1908 28.8175 14.6826 28.8175C11.2502 28.8092 7.80942 28.8092 4.37698 28.8092C4.27701 28.8092 4.16871 28.8175 4.06873 28.8092C3.77714 28.7842 3.56053 28.5509 3.5522 28.276C3.5522 27.9927 3.75214 27.7761 4.0604 27.7428C4.17703 27.7344 4.28535 27.7344 4.40198 27.7344C7.48451 27.7344 10.567 27.7344 13.6496 27.7344C13.7745 27.7344 13.8912 27.7344 13.9828 27.7344C14.0578 27.4429 14.1078 27.1929 14.1911 26.9513C14.5327 26.0182 14.8659 25.0768 15.2492 24.152C15.3825 23.8271 15.5824 23.5022 15.8323 23.2523C18.0484 21.0112 20.2812 18.7784 22.5223 16.554C22.6806 16.3957 22.7472 16.2374 22.7472 16.0125C22.7389 11.2887 22.7389 6.55663 22.7389 1.83286C22.7389 1.23301 22.5806 1.07472 21.9807 1.07472C16.4905 1.07472 11.0086 1.07472 5.51835 1.07472C5.41004 1.07472 5.29341 1.07472 5.16012 1.07472C5.16012 1.7662 5.16012 2.42437 5.16012 3.08253C5.16012 4.14892 4.48529 4.81541 3.42723 4.82374C2.7774 4.82374 2.11924 4.81541 1.41942 4.81541ZM17.3986 24.6103C20.3895 21.6194 23.3887 18.6118 26.3796 15.6293C26.163 15.4043 25.9297 15.1627 25.7048 14.9294C22.7055 17.9287 19.698 20.9279 16.6904 23.9354C16.9154 24.152 17.157 24.3853 17.3986 24.6103ZM18.8815 26.0932C21.8808 23.094 24.88 20.0948 27.8792 17.0955C27.6709 16.8873 27.446 16.654 27.2294 16.4291C24.2218 19.4366 21.2143 22.4358 18.2067 25.4434C18.4317 25.6683 18.6649 25.8933 18.8815 26.0932ZM30.2453 14.8545C30.5118 14.5795 30.7701 14.3296 31.0117 14.063C31.3616 13.6631 31.3783 13.0966 31.0201 12.6884C30.7535 12.3801 30.4619 12.0968 30.1619 11.8219C29.762 11.4637 29.1955 11.4553 28.7873 11.7969C28.4957 12.0469 28.2458 12.3301 27.9875 12.5884C28.7456 13.3465 29.4788 14.0797 30.2453 14.8545ZM16.0823 24.9685C15.7657 25.8099 15.4324 26.6681 15.1242 27.5345C15.0409 27.7678 15.2408 27.7344 15.3658 27.6928C16.2072 27.3845 17.0487 27.068 17.8735 26.7597C17.282 26.1599 16.6904 25.5683 16.0823 24.9685ZM26.5046 14.1047C27.2544 14.8545 27.9875 15.5876 28.6957 16.2958C28.9289 16.0791 29.1789 15.8542 29.3955 15.6543C28.6457 14.9044 27.9042 14.163 27.1877 13.4465C26.9711 13.6631 26.7295 13.888 26.5046 14.1047ZM2.27753 3.74069C2.71076 3.74069 3.12731 3.77402 3.53554 3.72403C3.71049 3.70737 3.99375 3.54908 4.01041 3.41578C4.08539 2.93257 4.07706 2.4327 4.10205 1.91617C3.46888 2.54934 2.88571 3.13251 2.27753 3.74069Z" fill="#E84E72"/>
<path d="M13.6329 13.5548C12.3499 14.5545 11.8917 14.6212 10.9169 13.9797C10.3921 14.4046 9.85888 14.8294 9.32568 15.2627C8.26762 16.1208 7.20956 16.9789 6.13484 17.8203C5.60165 18.2369 4.99348 18.2702 4.40197 17.9453C3.81045 17.6287 3.51886 17.0955 3.55218 16.429C3.56884 15.9125 3.82711 15.5043 4.227 15.1794C5.65163 14.0297 7.07626 12.8799 8.50922 11.7302C8.62586 11.6386 8.73417 11.547 8.85914 11.447C8.16765 10.2473 8.73416 9.43918 9.72557 8.78101C9.59227 8.53941 9.45898 8.35613 9.16739 8.41445C9.1174 8.42278 9.06741 8.39779 9.01742 8.38945C8.39259 8.25616 7.5678 7.13978 7.68444 6.51494C7.72609 6.28167 7.87605 6.01507 8.05934 5.86511C9.4923 4.69041 10.9336 3.53238 12.3915 2.38268C12.8748 1.99945 13.4579 2.08276 13.8662 2.55764C14.0411 2.76592 14.1994 2.98253 14.3744 3.19081C14.6076 3.47407 14.6493 3.80731 14.5993 4.15722C14.5826 4.26552 14.6076 4.40716 14.666 4.48214C16.0073 6.19002 17.3569 7.89792 18.7149 9.59747C18.7899 9.68912 18.9482 9.72244 19.0731 9.78075C19.0815 9.78909 19.0898 9.78075 19.1065 9.78075C19.8313 9.85573 20.7394 11.0054 20.5894 11.7136C20.5394 11.9552 20.3728 12.2218 20.1812 12.3801C18.7899 13.5214 17.3819 14.6462 15.9739 15.7709C15.3991 16.2291 14.7993 16.1458 14.341 15.5626C14.1994 15.3876 14.0578 15.2043 13.9162 15.0211C13.6745 14.7211 13.6329 14.3879 13.6912 14.0213C13.6995 13.8964 13.6579 13.7547 13.6329 13.5548ZM13.7662 5.09031C12.6248 6.00674 11.5084 6.9065 10.3587 7.82293C11.7584 9.58914 13.1414 11.3304 14.5243 13.0882C15.674 12.1635 16.7904 11.272 17.9234 10.3556C16.5488 8.59773 15.1658 6.84819 13.7662 5.09031ZM9.55062 12.2884C9.46731 12.3468 9.40899 12.3884 9.35067 12.4301C7.86772 13.6214 6.38478 14.8211 4.90184 16.0208C4.59358 16.2707 4.54359 16.604 4.75187 16.8622C4.96848 17.1288 5.2684 17.1372 5.60165 16.8622C6.53474 16.1124 7.46783 15.3626 8.40092 14.6128C9.0091 14.1213 9.60894 13.6381 10.2338 13.1299C10.0005 12.8466 9.79222 12.58 9.55062 12.2884ZM12.8664 12.7133C12.0416 11.6719 11.2252 10.6472 10.4004 9.6058C10.2254 9.74743 10.0838 9.85574 9.93385 9.97237C9.57561 10.264 9.54229 10.5472 9.82555 10.9138C10.3004 11.5136 10.8086 12.0968 11.2668 12.7133C11.9916 13.6881 12.2083 13.3298 12.8081 12.805C12.8331 12.7883 12.8414 12.7716 12.8664 12.7133ZM14.7243 14.3129C14.9076 14.5462 15.0742 14.7545 15.2491 14.9711C16.6988 13.8047 18.1151 12.6633 19.548 11.5136C19.3647 11.2804 19.2064 11.0804 19.0315 10.8638C17.5902 12.0135 16.1739 13.1465 14.7243 14.3129ZM9.2507 7.3314C10.7003 6.16503 12.1249 5.02366 13.5496 3.87396C13.3663 3.64069 13.208 3.44074 13.0331 3.2158C11.5918 4.37383 10.1671 5.5152 8.73417 6.67323C8.90913 6.9065 9.06741 7.10645 9.2507 7.3314Z" fill="#E84E72"/>
<path d="M10.2588 19.7365C12.1916 19.7365 14.1328 19.7365 16.0656 19.7365C16.1656 19.7365 16.2739 19.7365 16.3739 19.7448C16.6738 19.7698 16.8904 20.0031 16.882 20.278C16.882 20.5529 16.6654 20.7779 16.3655 20.8112C16.2822 20.8195 16.1989 20.8112 16.1156 20.8112C12.1833 20.8112 8.24263 20.8112 4.31032 20.8112C4.26033 20.8112 4.20202 20.8112 4.15204 20.8112C3.78547 20.8029 3.54386 20.5946 3.53553 20.2864C3.5272 19.9614 3.7688 19.7365 4.15204 19.7365C5.75162 19.7282 7.35953 19.7365 8.95911 19.7365C9.409 19.7365 9.83388 19.7365 10.2588 19.7365Z" fill="#E84E72"/>
<path d="M8.9175 22.3942C10.4338 22.3942 11.9584 22.3942 13.4746 22.3942C13.5996 22.3942 13.7246 22.4025 13.8412 22.4359C14.0911 22.5108 14.2161 22.6941 14.2161 22.9441C14.2078 23.2023 14.0745 23.3773 13.8246 23.4439C13.7079 23.4773 13.5746 23.4773 13.458 23.4773C10.4088 23.4773 7.35957 23.4773 4.31036 23.4773C4.21872 23.4773 4.11875 23.4773 4.02711 23.4606C3.73552 23.4106 3.5439 23.2023 3.5439 22.9357C3.5439 22.6608 3.74384 22.4359 4.04377 22.3942C4.14374 22.3775 4.25204 22.3859 4.35201 22.3859C5.88495 22.3942 7.40122 22.3942 8.9175 22.3942Z" fill="#E84E72"/>
<path d="M8.10939 25.0685C9.40905 25.0685 10.7087 25.0685 12.0084 25.0685C12.4083 25.0685 12.6415 25.2935 12.6082 25.6517C12.5832 25.9516 12.3833 26.1266 12.025 26.1349C11.2586 26.1432 10.4838 26.1349 9.71729 26.1349C7.92609 26.1349 6.13489 26.1349 4.34369 26.1349C4.24372 26.1349 4.13542 26.1349 4.03544 26.1266C3.75218 26.1016 3.55223 25.885 3.5439 25.61C3.53557 25.3351 3.75218 25.0852 4.04377 25.0685C4.35203 25.0519 4.66861 25.0602 4.97686 25.0602C6.02659 25.0685 7.06799 25.0685 8.10939 25.0685Z" fill="#E84E72"/>
</svg>
