<svg width="28" height="32" viewBox="0 0 28 32" fill="none" xmlns="http://www.w3.org/2000/svg">
<path d="M21.6595 0C22.2691 0.203175 22.7301 0.554823 22.8708 1.21905C22.9099 1.39878 22.9099 1.59414 22.9099 1.77387C22.9177 2.58657 22.9099 3.39145 22.9099 4.24322C23.5194 4.24322 24.0976 4.24322 24.6759 4.24322C24.9885 4.24322 25.3011 4.23541 25.6136 4.24322C26.442 4.26667 27.0671 4.85275 27.1453 5.68107C27.1531 5.8061 27.1531 5.93114 27.1531 6.05617C27.1531 12.0498 27.1531 18.0357 27.1531 24.0293C27.1531 25.2405 26.7077 26.2564 25.8246 27.0847C24.5196 28.3116 23.2146 29.5463 21.9096 30.7653C21.0344 31.5858 19.9951 32 18.7995 32C14.6031 32 10.399 32 6.20265 32C4.99923 32 4.40534 31.3983 4.40534 30.1949C4.40534 29.4134 4.40534 28.632 4.39752 27.8505C4.39752 27.8349 4.38189 27.8115 4.35845 27.7568C3.8974 27.7568 3.42072 27.7568 2.94404 27.7568C2.52988 27.7568 2.1079 27.7646 1.69374 27.7568C0.849781 27.7411 0.224628 27.1316 0.162113 26.2877C0.154299 26.1548 0.154299 26.0142 0.154299 25.8813C0.154299 17.9106 0.162113 9.93993 0.146484 1.96923C0.146484 1.00024 0.451246 0.320391 1.4046 0C8.15625 0 14.9079 0 21.6595 0ZM19.4403 30.8122C19.4403 30.6716 19.4403 30.5465 19.4403 30.4293C19.4403 29.304 19.4403 28.1788 19.4403 27.0535C19.4403 26.8034 19.4481 26.5455 19.5106 26.3111C19.7685 25.3031 20.5655 24.6935 21.6439 24.6935C22.8864 24.6857 24.1211 24.6935 25.3636 24.6935C25.9887 24.6935 25.9887 24.6935 25.9887 24.0449C25.9887 18.0591 25.9887 12.0654 25.9887 6.07961C25.9887 5.4779 25.9106 5.39976 25.3011 5.39976C18.9479 5.39976 12.5948 5.39976 6.24172 5.39976C5.64001 5.39976 5.56187 5.48571 5.56187 6.08742C5.56187 14.1206 5.56187 22.146 5.56187 30.1792C5.56187 30.7731 5.64001 30.8513 6.22609 30.8513C10.4224 30.8513 14.6188 30.8513 18.8229 30.8513C19.0105 30.8513 19.2058 30.8278 19.4403 30.8122ZM21.7533 4.24322C21.7533 3.31331 21.7611 2.43028 21.7533 1.54725C21.7533 1.30501 21.5892 1.17216 21.347 1.15653C21.261 1.14872 21.1829 1.14872 21.0969 1.14872C14.7204 1.14872 8.3438 1.14872 1.96724 1.14872C1.87347 1.14872 1.7797 1.14872 1.68592 1.15653C1.47493 1.17998 1.34209 1.30501 1.32646 1.52381C1.31865 1.65665 1.31865 1.78169 1.31865 1.90672C1.31865 9.59609 1.31865 17.2855 1.31865 24.9748C1.31865 25.3421 1.31865 25.7016 1.31865 26.0689C1.32646 26.4908 1.44368 26.6081 1.85784 26.6159C2.56895 26.6237 3.27225 26.6159 3.98336 26.6159C4.1162 26.6159 4.24905 26.6159 4.39752 26.6159C4.39752 26.4361 4.39752 26.3033 4.39752 26.1705C4.39752 19.5048 4.41315 12.8391 4.38189 6.16557C4.38189 4.93871 5.06175 4.21978 6.30424 4.22759C11.3055 4.26667 16.3067 4.24322 21.3079 4.24322C21.4407 4.24322 21.5736 4.24322 21.7533 4.24322ZM25.3792 25.9126C25.3636 25.8891 25.3401 25.8579 25.3245 25.8344C24.0898 25.8344 22.8473 25.8266 21.6127 25.8422C20.9797 25.8501 20.6046 26.2564 20.5968 26.905C20.589 27.8662 20.5968 28.8195 20.5968 29.7807C20.5968 29.9526 20.5968 30.1245 20.5968 30.2965C20.628 30.3121 20.6515 30.3277 20.6827 30.3512C22.2534 28.8664 23.8163 27.3895 25.3792 25.9126Z" fill="white"/>
<path d="M15.7828 9.63513C17.5488 9.63513 19.3227 9.63513 21.0887 9.63513C21.1825 9.63513 21.2763 9.62732 21.3701 9.64295C21.7139 9.68202 21.9483 9.92426 21.9405 10.229C21.9327 10.526 21.7139 10.7526 21.3779 10.7917C21.2763 10.8073 21.1669 10.7995 21.0653 10.7995C17.5332 10.7995 14.0089 10.7995 10.4768 10.7995C10.3205 10.7995 10.1642 10.7917 10.0157 10.7526C9.75003 10.6901 9.61719 10.4791 9.61719 10.2212C9.61719 9.96334 9.74222 9.75235 10.0079 9.68202C10.1486 9.64295 10.297 9.63513 10.4377 9.63513C12.2194 9.63513 14.0011 9.63513 15.7828 9.63513Z" fill="white"/>
<path d="M15.7829 13.5033C17.5646 13.5033 19.3385 13.5033 21.1202 13.5033C21.2374 13.5033 21.3546 13.4955 21.464 13.519C21.7453 13.5658 21.9485 13.8159 21.9407 14.0894C21.9329 14.3707 21.7375 14.5973 21.4405 14.6364C21.3311 14.652 21.2139 14.652 21.0967 14.652C17.549 14.652 14.0012 14.652 10.4535 14.652C9.89085 14.652 9.61735 14.4645 9.61735 14.0816C9.60953 13.6987 9.89085 13.5033 10.4457 13.5033C12.2195 13.5033 14.0012 13.5033 15.7829 13.5033Z" fill="white"/>
<path d="M15.7591 18.5046C13.9383 18.5046 12.1176 18.5046 10.2968 18.5046C9.82794 18.5046 9.54662 18.2076 9.63258 17.8169C9.68728 17.5668 9.83575 17.4105 10.0936 17.3793C10.2187 17.3636 10.3437 17.3636 10.4687 17.3636C14.0086 17.3636 17.5486 17.3636 21.0807 17.3636C21.1979 17.3636 21.3073 17.3636 21.4245 17.3793C21.7215 17.4183 21.9246 17.6293 21.9325 17.9185C21.9481 18.2076 21.7371 18.4577 21.4401 18.5046C21.3307 18.5202 21.2135 18.5124 21.0963 18.5124C19.3224 18.5046 17.5408 18.5046 15.7591 18.5046Z" fill="white"/>
<path d="M13.2515 22.3726C12.2747 22.3726 11.2979 22.3804 10.3133 22.3726C9.76627 22.3648 9.45369 21.935 9.68813 21.513C9.8366 21.2473 10.0867 21.2004 10.3602 21.2004C11.2276 21.2004 12.0871 21.2004 12.9545 21.2004C14.0017 21.2004 15.0566 21.2004 16.1038 21.2004C16.2444 21.2004 16.4007 21.2083 16.5335 21.2473C16.7758 21.3177 16.9086 21.4974 16.9165 21.7553C16.9243 22.021 16.7992 22.2241 16.5492 22.3101C16.4163 22.357 16.26 22.3648 16.1194 22.3648C15.166 22.3726 14.2049 22.3726 13.2515 22.3726Z" fill="white"/>
</svg>
