<svg width="18" height="19" viewBox="0 0 18 19" fill="none" xmlns="http://www.w3.org/2000/svg">
<g clip-path="url(#clip0_802_641)">
<path d="M3.72656 18.6052H14.2734C15.1458 18.6052 15.8555 17.8956 15.8555 17.0232V5.87866H12.1641C11.2917 5.87866 10.582 5.169 10.582 4.29663V0.605225H3.72656C2.8542 0.605225 2.14453 1.31489 2.14453 2.18726V17.0232C2.14453 17.8956 2.8542 18.6052 3.72656 18.6052ZM5.83594 8.02319H12.1641C12.4555 8.02319 12.6914 8.25906 12.6914 8.55054C12.6914 8.84202 12.4555 9.07788 12.1641 9.07788H5.83594C5.54446 9.07788 5.30859 8.84202 5.30859 8.55054C5.30859 8.25906 5.54446 8.02319 5.83594 8.02319ZM5.83594 10.1326H12.1641C12.4555 10.1326 12.6914 10.3684 12.6914 10.6599C12.6914 10.9514 12.4555 11.1873 12.1641 11.1873H5.83594C5.54446 11.1873 5.30859 10.9514 5.30859 10.6599C5.30859 10.3684 5.54446 10.1326 5.83594 10.1326ZM5.83594 12.2419H12.1641C12.4555 12.2419 12.6914 12.4778 12.6914 12.7693C12.6914 13.0608 12.4555 13.2966 12.1641 13.2966H5.83594C5.54446 13.2966 5.30859 13.0608 5.30859 12.7693C5.30859 12.4778 5.54446 12.2419 5.83594 12.2419ZM5.83594 14.3513H10.0547C10.3462 14.3513 10.582 14.5872 10.582 14.8787C10.582 15.1701 10.3462 15.406 10.0547 15.406H5.83594C5.54446 15.406 5.30859 15.1701 5.30859 14.8787C5.30859 14.5872 5.54446 14.3513 5.83594 14.3513Z" fill="#A1A1A1"/>
<path d="M12.1641 4.82395H15.5465L11.6367 0.914185V4.2966C11.6367 4.58756 11.8731 4.82395 12.1641 4.82395Z" fill="#A1A1A1"/>
</g>
<defs>
<clipPath id="clip0_802_641">
<rect width="18" height="18" fill="white" transform="translate(0 0.605225)"/>
</clipPath>
</defs>
</svg>
