<svg width="35" height="35" viewBox="0 0 35 35" fill="none" xmlns="http://www.w3.org/2000/svg">
<circle cx="17.5" cy="17.5" r="17" fill="white" stroke="#E84E72"/>
<path d="M25.3823 9.81728L21.9292 9.0205C21.5535 8.93381 21.1695 9.12848 21.0176 9.48306L19.4238 13.2017C19.3557 13.3606 19.3412 13.5372 19.3822 13.7051C19.4233 13.873 19.5179 14.0229 19.6517 14.1324L21.6643 15.7791C20.4699 18.325 18.3793 20.4444 15.7791 21.6643L14.1324 19.6517C14.0229 19.5179 13.873 19.4233 13.7051 19.3822C13.5372 19.3411 13.3606 19.3557 13.2017 19.4238L9.48306 21.0176C9.12858 21.1695 8.93378 21.5534 9.02051 21.9292L9.81728 25.3823C9.90009 25.7411 10.2201 26 10.5937 26C19.0966 26 26 19.1093 26 10.5937C26 10.2227 25.7439 9.90068 25.3823 9.81728Z" fill="#E84E72"/>
</svg>
