<svg width="18" height="19" viewBox="0 0 18 19" fill="none" xmlns="http://www.w3.org/2000/svg">
<g clip-path="url(#clip0_802_646)">
<path d="M11.25 5.48022C10.836 5.48022 10.5 5.14422 10.5 4.73022V3.60522H7.5V4.73022C7.5 5.14422 7.164 5.48022 6.75 5.48022C6.336 5.48022 6 5.14422 6 4.73022V3.60522C6 2.77797 6.67275 2.10522 7.5 2.10522H10.5C11.3272 2.10522 12 2.77797 12 3.60522V4.73022C12 5.14422 11.664 5.48022 11.25 5.48022Z" fill="#A1A1A1"/>
<path d="M9.5325 12.1402C9.3975 12.1927 9.2025 12.2302 9 12.2302C8.7975 12.2302 8.6025 12.1927 8.4225 12.1252L0 9.32019V15.0427C0 16.1827 0.9225 17.1052 2.0625 17.1052H15.9375C17.0775 17.1052 18 16.1827 18 15.0427V9.32019L9.5325 12.1402Z" fill="#A1A1A1"/>
<path d="M18 6.41773V8.13523L9.18 11.0752C9.12 11.0977 9.06 11.1052 9 11.1052C8.94 11.1052 8.88 11.0977 8.82 11.0752L0 8.13523V6.41773C0 5.27772 0.9225 4.35522 2.0625 4.35522H15.9375C17.0775 4.35522 18 5.27772 18 6.41773Z" fill="#A1A1A1"/>
</g>
<defs>
<clipPath id="clip0_802_646">
<rect width="18" height="18" fill="white" transform="translate(0 0.605225)"/>
</clipPath>
</defs>
</svg>
