<svg width="25" height="24" viewBox="0 0 25 24" fill="none" xmlns="http://www.w3.org/2000/svg">
<path d="M14.1546 24C13.0505 24 11.9404 24 10.8363 24C10.4947 23.8593 10.3423 23.5839 10.2386 23.2557C10.019 22.5524 9.74447 21.8667 9.54928 21.1634C9.43338 20.7531 9.25649 20.4601 8.79291 20.378C8.71361 20.3663 8.64042 20.3253 8.57332 20.2843C8.43302 20.2022 8.31713 20.2139 8.17073 20.2843C7.35336 20.6828 6.52989 21.0755 5.71252 21.4623C5.24894 21.6791 4.99885 21.644 4.63897 21.304C4.01069 20.7004 3.38241 20.1026 2.76024 19.4989C2.41255 19.1649 2.36985 18.9187 2.58944 18.4909C2.91273 17.8638 3.21162 17.2191 3.57151 16.6096C3.85209 16.1466 3.95579 15.7246 3.6264 15.2616C3.60811 15.2381 3.60201 15.203 3.59591 15.1737C3.55931 15.0213 3.45561 14.951 3.30311 14.9041C2.40035 14.6286 1.49758 14.3414 0.594818 14.0601C0.173934 13.9253 0.00923964 13.6968 0.00923964 13.2748C0.00923964 12.3078 -0.0151591 11.3349 0.0153398 10.3678C0.0580382 8.94953 0.680215 7.77738 1.78427 6.85137C2.08316 6.59936 2.43085 6.39423 2.76024 6.16566C1.41219 4.97006 1.26579 3.32904 1.82697 2.10414C2.41255 0.832354 3.7728 -0.122951 5.40144 0.0177072C7.32896 0.175948 8.42082 1.27777 8.8539 3.11806C8.9576 2.49681 9.15279 1.97521 9.49438 1.5122C9.83597 1.04334 10.2691 0.668252 10.7936 0.404517C11.3182 0.140782 11.8794 0.00012559 12.4772 0.00012559C13.2335 -0.00573519 13.9228 0.193528 14.545 0.597922C15.4478 1.18986 15.9723 2.01623 16.1553 3.12392C16.564 1.30708 17.6376 0.205251 19.5102 0.0235665C21.0229 -0.122953 22.249 0.49243 22.9871 1.77594C23.9203 3.39351 23.5544 4.87629 22.249 6.17738C22.2673 6.19496 22.2734 6.21255 22.2856 6.21841C22.3588 6.26529 22.4381 6.30632 22.5174 6.3532C23.53 6.93928 24.2436 7.76565 24.6645 8.82059C24.817 9.2074 24.8902 9.62938 25 10.0338C25 11.2059 25 12.3781 25 13.5502C24.8536 13.8726 24.5791 14.0191 24.2497 14.1187C23.5361 14.3297 22.8407 14.5817 22.1209 14.7751C21.6817 14.8924 21.3584 15.0682 21.273 15.5312C21.2608 15.6074 21.2181 15.6777 21.1754 15.7422C21.09 15.8711 21.1205 15.9825 21.1876 16.1114C21.6024 16.8967 22.005 17.6879 22.4137 18.4733C22.6455 18.9246 22.6028 19.1649 22.2307 19.5224C21.6146 20.1143 20.9985 20.7062 20.3825 21.2982C20.0104 21.6557 19.7603 21.6967 19.2906 21.474C18.5708 21.1341 17.845 20.8059 17.1374 20.4366C16.7958 20.2608 16.4969 20.1788 16.1553 20.4015C16.0699 20.4542 15.9601 20.4835 15.8625 20.5128C15.704 20.5539 15.6308 20.6476 15.582 20.7942C15.3136 21.6205 15.0269 22.4352 14.7585 23.2674C14.6487 23.5839 14.5023 23.8593 14.1546 24ZM23.5605 12.7356C23.5422 12.7121 23.5178 12.6946 23.4995 12.6711C22.0172 12.6711 20.535 12.6711 19.0527 12.6711C18.6196 15.8828 15.9723 18.0572 12.9713 18.2682C11.367 18.3795 9.89087 17.9751 8.59772 17.0491C7.06667 15.959 6.19441 14.4821 5.94432 12.6653C4.44987 12.6653 2.97373 12.6653 1.49148 12.6653C1.42439 12.8294 1.52808 12.8645 1.65618 12.9056C2.49795 13.1634 3.33362 13.4389 4.17538 13.6909C4.51087 13.7905 4.72436 13.9839 4.84026 14.3121C4.99275 14.7224 5.16964 15.1268 5.35874 15.5195C5.49293 15.8066 5.49293 16.0645 5.34044 16.3458C4.94395 17.0901 4.57187 17.8403 4.17538 18.5846C4.10219 18.7253 4.10219 18.8132 4.22418 18.9246C4.56577 19.2352 4.90125 19.5575 5.22454 19.8857C5.34044 20.0029 5.43194 20.0323 5.59663 19.9502C6.3591 19.5693 7.13987 19.2176 7.90234 18.8367C8.21343 18.6843 8.49402 18.6843 8.80511 18.8249C9.20769 19.0066 9.62248 19.1707 10.0434 19.3114C10.3788 19.4286 10.5801 19.6279 10.6838 19.9561C10.9461 20.7766 11.2328 21.5854 11.5012 22.4059C11.55 22.5641 11.6232 22.611 11.7879 22.6051C12.2576 22.5934 12.7334 22.5934 13.203 22.6051C13.3738 22.611 13.4409 22.5582 13.4897 22.4C13.752 21.5795 14.0387 20.7707 14.3071 19.9502C14.4108 19.622 14.6121 19.4227 14.9476 19.3055C15.3746 19.159 15.7954 18.989 16.2041 18.8074C16.503 18.6784 16.7714 18.6784 17.0642 18.8249C17.8389 19.2059 18.6196 19.5634 19.3943 19.9443C19.5407 20.0147 19.6322 20.0147 19.7481 19.8975C20.0714 19.5693 20.4069 19.2469 20.7485 18.9363C20.8705 18.8249 20.901 18.737 20.8156 18.5788C20.4191 17.8345 20.0409 17.0843 19.6505 16.34C19.5041 16.0586 19.498 15.8008 19.6383 15.5136C19.8213 15.1268 20.0043 14.7283 20.1507 14.3239C20.2727 13.9781 20.4923 13.7847 20.8522 13.6792C21.6878 13.433 22.5174 13.1634 23.347 12.8938C23.4263 12.8645 23.4873 12.7883 23.5605 12.7356ZM7.44486 11.2411C10.8241 11.2411 14.1851 11.2411 17.5461 11.2411C17.296 9.18396 15.3929 7.09752 12.5565 7.03306C10.0495 6.96859 7.80475 8.80887 7.44486 11.2411ZM7.48146 7.8477C6.57869 7.04478 4.92565 6.72243 3.48001 7.42572C2.06486 8.1173 1.25969 9.6411 1.49758 11.2352C2.97983 11.2352 4.46207 11.2352 5.95042 11.2352C6.10901 9.95172 6.62749 8.82645 7.48146 7.8477ZM23.5117 11.2352C23.7069 9.01986 22.5113 7.80081 21.1876 7.27921C19.7481 6.71657 18.1866 7.18544 17.5217 7.85356C18.3757 8.83231 18.8819 9.96344 19.0466 11.2352C20.5472 11.2352 22.0233 11.2352 23.5117 11.2352ZM17.5461 12.6535C17.1618 12.6535 16.7836 12.6653 16.3993 12.6477C16.1736 12.636 16.0699 12.6887 16.0028 12.9231C15.4661 14.7634 13.4653 15.8594 11.5561 15.3495C10.2081 14.9861 9.34799 14.1246 8.9454 12.8352C8.921 12.7649 8.84171 12.6653 8.78071 12.6594C8.33543 12.6477 7.89014 12.6535 7.43876 12.6535C7.74375 15.033 10.0129 16.9085 12.5138 16.8733C15.3441 16.8264 17.2777 14.7634 17.5461 12.6535ZM5.18794 1.40085C3.97409 1.44187 3.01032 2.27411 2.99813 3.49315C2.98593 4.64772 3.87649 5.58544 5.16354 5.60303C6.3896 5.62061 7.34116 4.73563 7.37166 3.50487C7.38996 2.37374 6.3774 1.41257 5.18794 1.40085ZM12.5321 1.40085C11.3792 1.41843 10.3544 2.19205 10.3179 3.4697C10.2874 4.55981 11.1108 5.562 12.4528 5.60303C13.6117 5.63819 14.6548 4.81768 14.6792 3.53417C14.7036 2.42063 13.8435 1.47704 12.5321 1.40085ZM22.0111 3.49901C21.9562 2.28583 21.029 1.42429 19.8091 1.40671C18.6196 1.38913 17.601 2.36788 17.6254 3.51073C17.6498 4.72977 18.6013 5.62061 19.8335 5.60888C21.1144 5.5913 21.9745 4.65944 22.0111 3.49901ZM14.5328 12.6653C13.1664 12.6653 11.8184 12.6653 10.4581 12.6653C10.7326 13.474 11.5866 14.0543 12.4955 14.0601C13.3982 14.0601 14.2461 13.4858 14.5328 12.6653ZM9.98236 6.06603C9.36019 5.49167 8.9942 4.78838 8.84171 3.96787C8.68311 4.84698 8.26833 5.57958 7.58515 6.17152C7.93894 6.40595 8.26833 6.62866 8.57942 6.82793C9.0491 6.57005 9.50658 6.3239 9.98236 6.06603ZM15.0208 6.06603C15.5088 6.32976 15.9662 6.58178 16.4237 6.83379C16.7409 6.6228 17.0703 6.40009 17.418 6.17152C16.7226 5.57958 16.3261 4.84113 16.1492 3.97373C16.0089 4.79424 15.6308 5.48581 15.0208 6.06603Z" fill="#E84E72"/>
</svg>
