<svg width="30" height="30" viewBox="0 0 30 30" fill="none" xmlns="http://www.w3.org/2000/svg">
<path fill-rule="evenodd" clip-rule="evenodd" d="M0 15C0 6.71573 6.71573 0 15 0C23.2843 0 30 6.71573 30 15C30 23.2843 23.2843 30 15 30C6.71573 30 0 23.2843 0 15Z" fill="#E84E72"/>
<mask id="mask0_811_27" style="mask-type:alpha" maskUnits="userSpaceOnUse" x="0" y="0" width="30" height="30">
<path fill-rule="evenodd" clip-rule="evenodd" d="M0 15C0 6.71573 6.71573 0 15 0C23.2843 0 30 6.71573 30 15C30 23.2843 23.2843 30 15 30C6.71573 30 0 23.2843 0 15Z" fill="white"/>
</mask>
<g mask="url(#mask0_811_27)">
<path fill-rule="evenodd" clip-rule="evenodd" d="M15.0008 6.99994C12.8281 6.99994 12.5554 7.00944 11.7021 7.04827C10.8504 7.08727 10.269 7.22211 9.76037 7.41994C9.23419 7.62428 8.78786 7.89762 8.34318 8.34245C7.89818 8.78713 7.62484 9.23346 7.41984 9.75947C7.2215 10.2683 7.0865 10.8498 7.04817 11.7012C7.01 12.5545 7 12.8273 7 15C7 17.1727 7.00967 17.4446 7.04833 18.2979C7.0875 19.1496 7.22234 19.7309 7.42001 20.2396C7.62451 20.7658 7.89784 21.2121 8.34268 21.6568C8.78719 22.1018 9.23353 22.3758 9.75937 22.5801C10.2684 22.778 10.8499 22.9128 11.7014 22.9518C12.5547 22.9906 12.8272 23.0001 14.9998 23.0001C17.1726 23.0001 17.4445 22.9906 18.2978 22.9518C19.1495 22.9128 19.7315 22.778 20.2405 22.5801C20.7665 22.3758 21.2122 22.1018 21.6567 21.6568C22.1017 21.2121 22.375 20.7658 22.58 20.2398C22.7767 19.7309 22.9117 19.1494 22.9517 18.2981C22.99 17.4447 23 17.1727 23 15C23 12.8273 22.99 12.5547 22.9517 11.7013C22.9117 10.8497 22.7767 10.2683 22.58 9.75964C22.375 9.23347 22.1017 8.78713 21.6567 8.34245C21.2117 7.89745 20.7667 7.62411 20.24 7.41994C19.73 7.22211 19.1483 7.08727 18.2966 7.04827C17.4433 7.00944 17.1716 6.99994 14.9983 6.99994H15.0008ZM14.2831 8.44145C14.4961 8.44111 14.7338 8.44145 15.0008 8.44145C17.1368 8.44145 17.39 8.44911 18.2335 8.48745C19.0135 8.52311 19.4368 8.65345 19.7188 8.76295C20.0922 8.90795 20.3583 9.08129 20.6382 9.36129C20.9182 9.64129 21.0915 9.90796 21.2369 10.2813C21.3464 10.563 21.4769 10.9863 21.5124 11.7663C21.5507 12.6097 21.559 12.863 21.559 14.998C21.559 17.133 21.5507 17.3864 21.5124 18.2297C21.4767 19.0097 21.3464 19.4331 21.2369 19.7147C21.0919 20.0881 20.9182 20.3539 20.6382 20.6338C20.3582 20.9138 20.0923 21.0871 19.7188 21.2321C19.4372 21.3421 19.0135 21.4721 18.2335 21.5078C17.3901 21.5461 17.1368 21.5544 15.0008 21.5544C12.8646 21.5544 12.6114 21.5461 11.7681 21.5078C10.9881 21.4718 10.5647 21.3414 10.2826 21.2319C9.90923 21.0869 9.64256 20.9136 9.36256 20.6336C9.08256 20.3536 8.90922 20.0876 8.76389 19.7141C8.65439 19.4324 8.52388 19.0091 8.48838 18.2291C8.45005 17.3857 8.44238 17.1324 8.44238 14.996C8.44238 12.8597 8.45005 12.6077 8.48838 11.7643C8.52405 10.9843 8.65439 10.561 8.76389 10.279C8.90889 9.90563 9.08256 9.63896 9.36256 9.35896C9.64256 9.07895 9.90923 8.90562 10.2826 8.76028C10.5646 8.65028 10.9881 8.52028 11.7681 8.48445C12.5061 8.45111 12.7921 8.44111 14.2831 8.43945V8.44145ZM19.2711 9.76984C18.741 9.76984 18.311 10.1993 18.311 10.7295C18.311 11.2595 18.741 11.6895 19.2711 11.6895C19.8011 11.6895 20.2311 11.2595 20.2311 10.7295C20.2311 10.1995 19.8011 9.7695 19.2711 9.7695V9.76984ZM15.001 10.8915C12.7321 10.8915 10.8926 12.731 10.8926 14.9999C10.8926 17.2688 12.7321 19.1074 15.001 19.1074C17.2698 19.1074 19.1087 17.2688 19.1087 14.9999C19.1087 12.731 17.2697 10.8915 15.0008 10.8915H15.001ZM15.0007 12.333C16.4734 12.333 17.6674 13.5268 17.6674 14.9997C17.6674 16.4724 16.4734 17.6664 15.0007 17.6664C13.5278 17.6664 12.334 16.4724 12.334 14.9997C12.334 13.5268 13.5278 12.333 15.0007 12.333V12.333Z" fill="white"/>
</g>
</svg>
