<svg width="30" height="31" viewBox="0 0 30 31" fill="none" xmlns="http://www.w3.org/2000/svg">
<path fill-rule="evenodd" clip-rule="evenodd" d="M0 15.1177C0 6.83341 6.71573 0.117676 15 0.117676C23.2843 0.117676 30 6.83341 30 15.1177C30 23.402 23.2843 30.1177 15 30.1177C6.71573 30.1177 0 23.402 0 15.1177Z" fill="white"/>
<mask id="mask0_811_306" style="mask-type:alpha" maskUnits="userSpaceOnUse" x="0" y="0" width="30" height="31">
<path fill-rule="evenodd" clip-rule="evenodd" d="M0 15.1177C0 6.83341 6.71573 0.117676 15 0.117676C23.2843 0.117676 30 6.83341 30 15.1177C30 23.402 23.2843 30.1177 15 30.1177C6.71573 30.1177 0 23.402 0 15.1177Z" fill="white"/>
</mask>
<g mask="url(#mask0_811_306)">
<path fill-rule="evenodd" clip-rule="evenodd" d="M15.0008 7.11768C12.8281 7.11768 12.5554 7.12718 11.7021 7.16601C10.8504 7.20501 10.269 7.33985 9.76037 7.53768C9.23419 7.74202 8.78786 8.01535 8.34318 8.46019C7.89818 8.90486 7.62484 9.3512 7.41984 9.87721C7.2215 10.386 7.0865 10.9676 7.04817 11.8189C7.01 12.6722 7 12.9451 7 15.1178C7 17.2905 7.00967 17.5623 7.04833 18.4156C7.0875 19.2673 7.22234 19.8487 7.42001 20.3573C7.62451 20.8835 7.89784 21.3298 8.34268 21.7745C8.78719 22.2195 9.23353 22.4935 9.75937 22.6979C10.2684 22.8957 10.8499 23.0305 11.7014 23.0695C12.5547 23.1084 12.8272 23.1179 14.9998 23.1179C17.1726 23.1179 17.4445 23.1084 18.2978 23.0695C19.1495 23.0305 19.7315 22.8957 20.2405 22.6979C20.7665 22.4935 21.2122 22.2195 21.6567 21.7745C22.1017 21.3298 22.375 20.8835 22.58 20.3575C22.7767 19.8487 22.9117 19.2672 22.9517 18.4158C22.99 17.5625 23 17.2905 23 15.1178C23 12.9451 22.99 12.6724 22.9517 11.8191C22.9117 10.9674 22.7767 10.386 22.58 9.87737C22.375 9.3512 22.1017 8.90486 21.6567 8.46019C21.2117 8.01519 20.7667 7.74185 20.24 7.53768C19.73 7.33985 19.1483 7.20501 18.2966 7.16601C17.4433 7.12718 17.1716 7.11768 14.9983 7.11768H15.0008ZM14.2831 8.55918C14.4961 8.55885 14.7338 8.55918 15.0008 8.55918C17.1368 8.55918 17.39 8.56685 18.2335 8.60518C19.0135 8.64085 19.4368 8.77119 19.7188 8.88069C20.0922 9.02569 20.3583 9.19902 20.6382 9.47903C20.9182 9.75903 21.0915 10.0257 21.2369 10.399C21.3464 10.6807 21.4769 11.104 21.5124 11.8841C21.5507 12.7274 21.559 12.9807 21.559 15.1158C21.559 17.2508 21.5507 17.5041 21.5124 18.3475C21.4767 19.1275 21.3464 19.5508 21.2369 19.8325C21.0919 20.2058 20.9182 20.4717 20.6382 20.7515C20.3582 21.0315 20.0923 21.2048 19.7188 21.3498C19.4372 21.4598 19.0135 21.5898 18.2335 21.6255C17.3901 21.6638 17.1368 21.6722 15.0008 21.6722C12.8646 21.6722 12.6114 21.6638 11.7681 21.6255C10.9881 21.5895 10.5647 21.4592 10.2826 21.3497C9.90923 21.2047 9.64256 21.0313 9.36256 20.7513C9.08256 20.4713 8.90922 20.2053 8.76389 19.8318C8.65439 19.5501 8.52388 19.1268 8.48838 18.3468C8.45005 17.5035 8.44238 17.2501 8.44238 15.1138C8.44238 12.9774 8.45005 12.7254 8.48838 11.8821C8.52405 11.102 8.65439 10.6787 8.76389 10.3967C8.90889 10.0234 9.08256 9.7567 9.36256 9.47669C9.64256 9.19669 9.90923 9.02336 10.2826 8.87802C10.5646 8.76802 10.9881 8.63802 11.7681 8.60218C12.5061 8.56885 12.7921 8.55885 14.2831 8.55718V8.55918ZM19.2711 9.88757C18.741 9.88757 18.311 10.3171 18.311 10.8473C18.311 11.3773 18.741 11.8073 19.2711 11.8073C19.8011 11.8073 20.2311 11.3773 20.2311 10.8473C20.2311 10.3172 19.8011 9.88724 19.2711 9.88724V9.88757ZM15.001 11.0093C12.7321 11.0093 10.8926 12.8488 10.8926 15.1176C10.8926 17.3865 12.7321 19.2252 15.001 19.2252C17.2698 19.2252 19.1087 17.3865 19.1087 15.1176C19.1087 12.8488 17.2697 11.0093 15.0008 11.0093H15.001ZM15.0007 12.4507C16.4734 12.4507 17.6674 13.6446 17.6674 15.1174C17.6674 16.5901 16.4734 17.7841 15.0007 17.7841C13.5278 17.7841 12.334 16.5901 12.334 15.1174C12.334 13.6446 13.5278 12.4507 15.0007 12.4507Z" fill="#E84E72"/>
</g>
</svg>
