<svg width="80" height="80" viewBox="0 0 80 80" fill="none" xmlns="http://www.w3.org/2000/svg">
<path fill-rule="evenodd" clip-rule="evenodd" d="M0 40C0 17.9086 17.9086 0 40 0C62.0914 0 80 17.9086 80 40C80 62.0914 62.0914 80 40 80C17.9086 80 0 62.0914 0 40Z" fill="white"/>
<path fill-rule="evenodd" clip-rule="evenodd" d="M40.6664 18.6401C27.0664 18.6401 16 27.5551 16 38.513C16 48.3368 24.7754 56.564 36.6291 58.1198C37.4325 58.2916 38.5258 58.6456 38.8024 59.3272C39.0511 59.9464 38.965 60.9163 38.8818 61.5416C38.8818 61.5416 38.5924 63.2697 38.53 63.6377C38.4227 64.2569 38.0345 66.0592 40.6664 64.9578C43.2993 63.8565 54.8721 56.6537 60.0472 50.74C63.6211 46.8482 65.3333 42.8987 65.3333 38.513C65.3333 27.5551 54.2683 18.6401 40.6664 18.6401Z" fill="#E84E72"/>
<path fill-rule="evenodd" clip-rule="evenodd" d="M33.8098 33.3335C33.547 33.3335 33.3334 33.554 33.3334 33.825V44.842C33.3334 45.1134 33.547 45.3335 33.8098 45.3335H35.524C35.7868 45.3335 36 45.1134 36 44.842V33.825C36 33.554 35.7868 33.3335 35.524 33.3335H33.8098Z" fill="white"/>
<path fill-rule="evenodd" clip-rule="evenodd" d="M47.499 33.3335H45.6944C45.4177 33.3335 45.1933 33.554 45.1933 33.825V40.3702L40.0563 33.5521C40.0444 33.5346 40.0311 33.5182 40.0173 33.5022L40.0138 33.4993C40.004 33.4881 39.9941 33.4784 39.9838 33.4687C39.9808 33.4658 39.9778 33.4634 39.9744 33.4605C39.966 33.4527 39.9571 33.4455 39.9478 33.4387C39.9438 33.4348 39.9394 33.4319 39.9349 33.4285C39.9261 33.4227 39.9177 33.4164 39.9088 33.411C39.9039 33.4077 39.8989 33.4047 39.8935 33.4023C39.8846 33.397 39.8758 33.3917 39.8669 33.3873C39.8615 33.3849 39.8565 33.382 39.8511 33.38C39.8417 33.3757 39.8324 33.3713 39.8225 33.3679C39.8166 33.366 39.8116 33.364 39.8062 33.3621C39.7964 33.3587 39.7865 33.3553 39.7761 33.3529C39.7707 33.3509 39.7648 33.35 39.7589 33.348C39.749 33.3461 39.7396 33.3437 39.7303 33.3417C39.7234 33.3408 39.716 33.3398 39.7091 33.3393C39.7002 33.3374 39.6913 33.3369 39.6824 33.3359C39.674 33.335 39.6657 33.335 39.6568 33.3345C39.6504 33.3345 39.6454 33.3335 39.639 33.3335H37.8349C37.5583 33.3335 37.3334 33.554 37.3334 33.825V44.842C37.3334 45.1134 37.5583 45.3335 37.8349 45.3335H39.639C39.9162 45.3335 40.1406 45.1134 40.1406 44.842V38.2987L45.284 45.1256C45.3196 45.175 45.3635 45.2152 45.4113 45.2472C45.4128 45.2482 45.4147 45.2496 45.4162 45.2511C45.4266 45.2574 45.4369 45.2637 45.4473 45.2695C45.4522 45.2724 45.4567 45.2744 45.4616 45.2768C45.469 45.2811 45.4774 45.285 45.4853 45.2884C45.4937 45.2918 45.5011 45.2952 45.5099 45.2986C45.5149 45.3005 45.5198 45.3025 45.5247 45.3039C45.5366 45.3083 45.5474 45.3117 45.5588 45.3151C45.5612 45.3151 45.5637 45.316 45.5662 45.3165C45.6071 45.3272 45.65 45.3335 45.6944 45.3335H47.499C47.7761 45.3335 48 45.1134 48 44.842V33.825C48 33.554 47.7761 33.3335 47.499 33.3335" fill="white"/>
<path fill-rule="evenodd" clip-rule="evenodd" d="M31.5127 42.5747H26.7349V33.8259C26.7349 33.554 26.5163 33.3335 26.2471 33.3335H24.4883C24.2187 33.3335 24 33.554 24 33.8259V44.8406V44.8415C24 44.9739 24.0524 45.0936 24.1365 45.1818C24.1384 45.1842 24.1403 45.1866 24.1432 45.1891C24.1456 45.1915 24.148 45.1934 24.1504 45.1958C24.2384 45.2811 24.3566 45.3335 24.4878 45.3335H31.5127C31.7823 45.3335 32 45.1125 32 44.8406V43.0672C32 42.7953 31.7823 42.5747 31.5127 42.5747" fill="white"/>
<path fill-rule="evenodd" clip-rule="evenodd" d="M56.8459 36.0922C57.1155 36.0922 57.3332 35.8722 57.3332 35.5998V33.8264C57.3332 33.5545 57.1155 33.3335 56.8459 33.3335H49.8216H49.8207C49.689 33.3335 49.5703 33.3868 49.4823 33.4726C49.4804 33.4745 49.478 33.476 49.4766 33.4779C49.4737 33.4808 49.4713 33.4837 49.4689 33.4867C49.3853 33.5749 49.3334 33.6941 49.3334 33.8259V33.8264V44.8411V44.8415C49.3334 44.9739 49.3858 45.0936 49.4699 45.1818C49.4718 45.1842 49.4742 45.1871 49.4766 45.1891C49.4785 45.1915 49.4814 45.1939 49.4838 45.1958C49.5712 45.2807 49.6899 45.3335 49.8207 45.3335H56.8459C57.1155 45.3335 57.3332 45.1125 57.3332 44.8411V43.0672C57.3332 42.7957 57.1155 42.5747 56.8459 42.5747H52.0687V40.7126H56.8459C57.1155 40.7126 57.3332 40.4921 57.3332 40.2202V38.4468C57.3332 38.1749 57.1155 37.9539 56.8459 37.9539H52.0687V36.0922H56.8459Z" fill="white"/>
</svg>
