<svg width="30" height="31" viewBox="0 0 30 31" fill="none" xmlns="http://www.w3.org/2000/svg">
<path fill-rule="evenodd" clip-rule="evenodd" d="M15 30.8823C23.2843 30.8823 30 24.1665 30 15.8823C30 7.59804 23.2843 0.882324 15 0.882324C6.71573 0.882324 0 7.59804 0 15.8823C0 24.1665 6.71573 30.8823 15 30.8823Z" fill="#E84E72"/>
<path fill-rule="evenodd" clip-rule="evenodd" d="M15.2094 15.0404C14.0376 15.0404 8.00045 11.6169 8.00045 11.6169V11.0823C8.00045 10.4199 8.53805 9.88229 9.20165 9.88229H21.2172C21.8814 9.88229 22.419 10.4199 22.419 11.0823L22.4094 11.6823C22.4094 11.6823 16.4376 15.0404 15.2094 15.0404ZM15.209 16.6901C16.4936 16.6901 22.4089 13.4819 22.4089 13.4819L22.4185 20.6819C22.4185 21.3443 21.8809 21.8819 21.2167 21.8819H9.20116C8.53816 21.8819 7.99996 21.3443 7.99996 20.6819L8.00956 13.4819C8.00896 13.4819 14.0372 16.6901 15.209 16.6901Z" fill="white"/>
</svg>
