<svg width="30" height="30" viewBox="0 0 30 30" fill="none" xmlns="http://www.w3.org/2000/svg">
<path fill-rule="evenodd" clip-rule="evenodd" d="M15 29.9999C23.2843 29.9999 30 23.2842 30 15C30 6.71571 23.2843 0 15 0C6.71573 0 0 6.71571 0 15C0 23.2842 6.71573 29.9999 15 29.9999Z" fill="white"/>
<path fill-rule="evenodd" clip-rule="evenodd" d="M15.2095 14.1581C14.0377 14.1581 8.00049 10.7346 8.00049 10.7346V10.2C8.00049 9.5376 8.53809 9 9.20169 9H21.2173C21.8815 9 22.4191 9.5376 22.4191 10.2L22.4095 10.8C22.4095 10.8 16.4377 14.1581 15.2095 14.1581ZM15.209 15.8078C16.4936 15.8078 22.409 12.5997 22.409 12.5997L22.4186 19.7996C22.4186 20.462 21.881 20.9996 21.2168 20.9996H9.2012C8.5382 20.9996 8 20.462 8 19.7996L8.0096 12.5997C8.009 12.5997 14.0372 15.8078 15.209 15.8078Z" fill="#E84E72"/>
</svg>
