<svg width="43" height="43" viewBox="0 0 43 43" fill="none" xmlns="http://www.w3.org/2000/svg">
<path fill-rule="evenodd" clip-rule="evenodd" d="M0 21.1183C0 9.455 9.455 0 21.1183 0C32.7817 0 42.2367 9.455 42.2367 21.1183C42.2367 32.7817 32.7817 42.2367 21.1183 42.2367C9.455 42.2367 0 32.7817 0 21.1183Z" fill="#E16146"/>
<path d="M24.0088 18.5177C26.1093 20.6203 26.0805 23.9914 24.0215 26.0618C24.0176 26.066 24.0131 26.0706 24.0088 26.0748L21.6463 28.4373C19.5626 30.521 16.1725 30.5208 14.0892 28.4373C12.0054 26.354 12.0054 22.9635 14.0892 20.8802L15.3937 19.5756C15.7396 19.2297 16.3354 19.4596 16.3532 19.9485C16.376 20.5716 16.4877 21.1975 16.6939 21.802C16.7637 22.0067 16.7138 22.2331 16.5609 22.386L16.1008 22.8461C15.1155 23.8314 15.0846 25.4357 16.0602 26.4306C17.0454 27.4353 18.6648 27.4413 19.6576 26.4485L22.0201 24.0864C23.0111 23.0953 23.007 21.4934 22.0201 20.5064C21.8899 20.3766 21.7589 20.2757 21.6565 20.2052C21.5841 20.1555 21.5243 20.0895 21.4819 20.0125C21.4395 19.9356 21.4156 19.8498 21.4123 19.762C21.3983 19.3905 21.53 19.0077 21.8235 18.7141L22.5637 17.9739C22.7578 17.7798 23.0623 17.756 23.2874 17.9131C23.5451 18.0931 23.7865 18.2954 24.0088 18.5177ZM28.9636 13.5627C26.8802 11.4792 23.4901 11.479 21.4064 13.5627L19.0439 15.9252C19.0397 15.9294 19.0351 15.934 19.0312 15.9382C16.9723 18.0086 16.9434 21.3797 19.0439 23.4823C19.2662 23.7046 19.5076 23.9069 19.7653 24.0869C19.9904 24.244 20.2949 24.2201 20.489 24.026L21.2292 23.2858C21.5227 22.9923 21.6544 22.6095 21.6404 22.238C21.6371 22.1502 21.6132 22.0644 21.5708 21.9874C21.5284 21.9105 21.4686 21.8445 21.3962 21.7948C21.2938 21.7243 21.1628 21.6234 21.0327 21.4935C20.0457 20.5066 20.0416 18.9047 21.0327 17.9136L23.3952 15.5514C24.3879 14.5586 26.0073 14.5646 26.9925 15.5694C27.9681 16.5643 27.9372 18.1686 26.9519 19.1539L26.4918 19.614C26.3389 19.7669 26.289 19.9933 26.3588 20.198C26.565 20.8025 26.6767 21.4284 26.6995 22.0515C26.7174 22.5403 27.3131 22.7703 27.659 22.4243L28.9636 21.1198C31.0473 19.0365 31.0473 15.646 28.9636 13.5627Z" fill="white"/>
</svg>
