<svg width="13" height="14" viewBox="0 0 13 14" fill="none" xmlns="http://www.w3.org/2000/svg">
<path d="M6.5 0.439697C2.90927 0.439697 0 3.34897 0 6.9397C0 10.5304 2.90927 13.4397 6.5 13.4397C10.0907 13.4397 13 10.5304 13 6.9397C13 3.34897 10.0907 0.439697 6.5 0.439697ZM6.5 12.1816C3.60383 12.1816 1.25806 9.83587 1.25806 6.9397C1.25806 4.04353 3.60383 1.69776 6.5 1.69776C9.39617 1.69776 11.7419 4.04353 11.7419 6.9397C11.7419 9.83587 9.39617 12.1816 6.5 12.1816ZM8.11976 9.44534L5.89456 7.8282C5.81331 7.76792 5.76613 7.67357 5.76613 7.57397V3.27034C5.76613 3.09736 5.90766 2.95583 6.08064 2.95583H6.91935C7.09234 2.95583 7.23387 3.09736 7.23387 3.27034V6.98425L8.98468 8.25804C9.12621 8.36026 9.15504 8.55683 9.05282 8.69837L8.56008 9.3772C8.45786 9.51611 8.26129 9.54756 8.11976 9.44534Z" fill="#444444" fill-opacity="0.5"/>
</svg>
