<svg width="33" height="32" viewBox="0 0 33 32" fill="none" xmlns="http://www.w3.org/2000/svg">
<path d="M0.353516 30.7503C0.353516 21.8526 0.353516 12.9633 0.353516 4.06561C0.436827 3.97396 0.511808 3.88232 0.603451 3.79068C1.77814 2.61599 2.96117 1.44129 4.13587 0.258264C4.31915 0.0749784 4.51077 0 4.76903 0C10.5675 0.00833116 16.366 -2.0341e-06 22.1645 0.00832913C22.2978 0.00832913 22.4394 0.00833116 22.5644 0.0416558C23.3642 0.233273 23.8307 0.858109 23.8307 1.77454C23.8307 6.11507 23.8307 10.4556 23.8307 14.7961C23.8307 14.9128 23.8307 15.0294 23.8307 15.1461C23.8641 15.1544 23.8974 15.1711 23.9224 15.1794C23.989 15.0961 24.0474 15.0128 24.1223 14.9378C25.3887 13.6714 26.6467 12.3968 27.9213 11.1388C28.7628 10.3057 30.0458 10.2473 30.8789 11.0138C31.4787 11.5637 32.1202 12.0968 32.3452 12.9383C32.3452 13.2132 32.3452 13.4798 32.3452 13.7547C32.1702 14.4046 31.7453 14.8711 31.2871 15.3293C28.8711 17.7287 26.4717 20.1448 24.0557 22.5441C23.8891 22.7108 23.8224 22.8857 23.8224 23.119C23.8307 25.485 23.8224 27.8427 23.8307 30.2088C23.8307 30.7503 23.7058 31.2502 23.2642 31.6001C23.0476 31.7667 22.781 31.8667 22.5311 32C15.5496 32 8.57638 32 1.59486 32C0.986686 31.7917 0.570126 31.3752 0.353516 30.7503ZM1.41991 4.81541C1.41991 4.93205 1.41991 4.9987 1.41991 5.07368C1.41991 13.4632 1.41991 21.861 1.41991 30.2505C1.41991 30.7503 1.61985 30.9336 2.13639 30.9336C8.76799 30.9336 15.3996 30.9336 22.0312 30.9336C22.5644 30.9336 22.731 30.7587 22.731 30.2171C22.731 28.2177 22.731 26.2182 22.731 24.2187C22.731 24.1271 22.7227 24.0437 22.7144 23.9021C22.5977 24.0187 22.5144 24.0854 22.4311 24.1687C21.473 25.1268 20.5233 26.0932 19.5569 27.0346C19.3236 27.2596 19.032 27.4429 18.7321 27.5678C17.874 27.9177 16.9992 28.2177 16.1411 28.5592C15.6662 28.7425 15.1913 28.8175 14.6831 28.8175C11.2507 28.8092 7.80991 28.8092 4.37747 28.8092C4.2775 28.8092 4.1692 28.8175 4.06922 28.8092C3.77763 28.7842 3.56102 28.5509 3.55269 28.276C3.55269 27.9927 3.75263 27.7761 4.06088 27.7428C4.17752 27.7344 4.28583 27.7344 4.40247 27.7344C7.485 27.7344 10.5675 27.7344 13.6501 27.7344C13.775 27.7344 13.8917 27.7344 13.9833 27.7344C14.0583 27.4429 14.1083 27.1929 14.1916 26.9513C14.5332 26.0182 14.8664 25.0768 15.2496 24.152C15.3829 23.8271 15.5829 23.5022 15.8328 23.2523C18.0489 21.0112 20.2817 18.7784 22.5228 16.554C22.681 16.3957 22.7477 16.2374 22.7477 16.0125C22.7394 11.2887 22.7394 6.55663 22.7394 1.83286C22.7394 1.23301 22.5811 1.07472 21.9812 1.07472C16.491 1.07472 11.0091 1.07472 5.51884 1.07472C5.41053 1.07472 5.2939 1.07472 5.1606 1.07472C5.1606 1.7662 5.1606 2.42437 5.1606 3.08253C5.1606 4.14892 4.48578 4.81541 3.42772 4.82374C2.77789 4.82374 2.11973 4.81541 1.41991 4.81541ZM17.3991 24.6103C20.39 21.6194 23.3892 18.6118 26.3801 15.6293C26.1635 15.4043 25.9302 15.1627 25.7053 14.9294C22.706 17.9287 19.6985 20.9279 16.6909 23.9354C16.9159 24.152 17.1575 24.3853 17.3991 24.6103ZM18.882 26.0932C21.8812 23.094 24.8805 20.0948 27.8797 17.0955C27.6714 16.8873 27.4465 16.654 27.2299 16.4291C24.2223 19.4366 21.2148 22.4358 18.2072 25.4434C18.4321 25.6683 18.6654 25.8933 18.882 26.0932ZM30.2457 14.8545C30.5123 14.5795 30.7706 14.3296 31.0122 14.063C31.3621 13.6631 31.3788 13.0966 31.0205 12.6884C30.7539 12.3801 30.4623 12.0968 30.1624 11.8219C29.7625 11.4637 29.196 11.4553 28.7878 11.7969C28.4962 12.0469 28.2463 12.3301 27.988 12.5884C28.7461 13.3465 29.4793 14.0797 30.2457 14.8545ZM16.0828 24.9685C15.7662 25.8099 15.4329 26.6681 15.1247 27.5345C15.0414 27.7678 15.2413 27.7344 15.3663 27.6928C16.2077 27.3845 17.0492 27.068 17.874 26.7597C17.2824 26.1599 16.6909 25.5683 16.0828 24.9685ZM26.505 14.1047C27.2548 14.8545 27.988 15.5876 28.6961 16.2958C28.9294 16.0791 29.1794 15.8542 29.396 15.6543C28.6462 14.9044 27.9047 14.163 27.1882 13.4465C26.9716 13.6631 26.73 13.888 26.505 14.1047ZM2.27802 3.74069C2.71124 3.74069 3.1278 3.77402 3.53603 3.72403C3.71098 3.70737 3.99424 3.54908 4.0109 3.41578C4.08588 2.93257 4.07755 2.4327 4.10254 1.91617C3.46937 2.54934 2.8862 3.13251 2.27802 3.74069Z" fill="white"/>
<path d="M13.6341 13.5548C12.3511 14.5545 11.8928 14.6212 10.9181 13.9797C10.3932 14.4046 9.86004 14.8294 9.32685 15.2627C8.26879 16.1208 7.21073 16.9789 6.13601 17.8203C5.60281 18.2369 4.99465 18.2702 4.40313 17.9453C3.81162 17.6287 3.52002 17.0955 3.55335 16.429C3.57001 15.9125 3.82827 15.5043 4.22817 15.1794C5.6528 14.0297 7.07743 12.8799 8.51039 11.7302C8.62703 11.6386 8.73534 11.547 8.86031 11.447C8.16882 10.2473 8.73533 9.43918 9.72674 8.78101C9.59344 8.53941 9.46015 8.35613 9.16855 8.41445C9.11857 8.42278 9.06858 8.39779 9.01859 8.38945C8.39375 8.25616 7.56897 7.13978 7.6856 6.51494C7.72726 6.28167 7.87722 6.01507 8.06051 5.86511C9.49347 4.69041 10.9348 3.53238 12.3927 2.38268C12.8759 1.99945 13.4591 2.08276 13.8673 2.55764C14.0423 2.76592 14.2006 2.98253 14.3755 3.19081C14.6088 3.47407 14.6505 3.80731 14.6005 4.15722C14.5838 4.26552 14.6088 4.40716 14.6671 4.48214C16.0084 6.19002 17.3581 7.89792 18.7161 9.59747C18.791 9.68912 18.9493 9.72244 19.0743 9.78075C19.0826 9.78909 19.091 9.78075 19.1076 9.78075C19.8324 9.85573 20.7405 11.0054 20.5906 11.7136C20.5406 11.9552 20.374 12.2218 20.1824 12.3801C18.791 13.5214 17.3831 14.6462 15.9751 15.7709C15.4003 16.2291 14.8004 16.1458 14.3422 15.5626C14.2006 15.3876 14.0589 15.2043 13.9173 15.0211C13.6757 14.7211 13.6341 14.3879 13.6924 14.0213C13.7007 13.8964 13.6591 13.7547 13.6341 13.5548ZM13.7674 5.09031C12.626 6.00674 11.5096 6.9065 10.3599 7.82293C11.7596 9.58914 13.1425 11.3304 14.5255 13.0882C15.6752 12.1635 16.7916 11.272 17.9246 10.3556C16.55 8.59773 15.167 6.84819 13.7674 5.09031ZM9.55179 12.2884C9.46847 12.3468 9.41015 12.3884 9.35184 12.4301C7.86889 13.6214 6.38595 14.8211 4.903 16.0208C4.59475 16.2707 4.54476 16.604 4.75304 16.8622C4.96965 17.1288 5.26957 17.1372 5.60281 16.8622C6.5359 16.1124 7.469 15.3626 8.40209 14.6128C9.01027 14.1213 9.61011 13.6381 10.2349 13.1299C10.0017 12.8466 9.79339 12.58 9.55179 12.2884ZM12.8676 12.7133C12.0428 11.6719 11.2264 10.6472 10.4016 9.6058C10.2266 9.74743 10.085 9.85574 9.93502 9.97237C9.57678 10.264 9.54346 10.5472 9.82672 10.9138C10.3016 11.5136 10.8098 12.0968 11.268 12.7133C11.9928 13.6881 12.2094 13.3298 12.8093 12.805C12.8343 12.7883 12.8426 12.7716 12.8676 12.7133ZM14.7254 14.3129C14.9087 14.5462 15.0754 14.7545 15.2503 14.9711C16.6999 13.8047 18.1162 12.6633 19.5492 11.5136C19.3659 11.2804 19.2076 11.0804 19.0327 10.8638C17.5914 12.0135 16.1751 13.1465 14.7254 14.3129ZM9.25187 7.3314C10.7015 6.16503 12.1261 5.02366 13.5507 3.87396C13.3675 3.64069 13.2092 3.44074 13.0342 3.2158C11.5929 4.37383 10.1683 5.5152 8.73534 6.67323C8.91029 6.9065 9.06858 7.10645 9.25187 7.3314Z" fill="white"/>
<path d="M10.2586 19.7365C12.1914 19.7365 14.1326 19.7365 16.0654 19.7365C16.1654 19.7365 16.2737 19.7365 16.3737 19.7448C16.6736 19.7698 16.8902 20.0031 16.8819 20.278C16.8819 20.5529 16.6653 20.7779 16.3654 20.8112C16.282 20.8195 16.1987 20.8112 16.1154 20.8112C12.1831 20.8112 8.24247 20.8112 4.31016 20.8112C4.26017 20.8112 4.20186 20.8112 4.15187 20.8112C3.7853 20.8029 3.5437 20.5946 3.53537 20.2864C3.52703 19.9614 3.76864 19.7365 4.15187 19.7365C5.75146 19.7282 7.35937 19.7365 8.95895 19.7365C9.40883 19.7365 9.83372 19.7365 10.2586 19.7365Z" fill="white"/>
<path d="M8.91852 22.3942C10.4348 22.3942 11.9594 22.3942 13.4757 22.3942C13.6006 22.3942 13.7256 22.4025 13.8422 22.4359C14.0922 22.5108 14.2171 22.6941 14.2171 22.9441C14.2088 23.2023 14.0755 23.3773 13.8256 23.4439C13.7089 23.4773 13.5756 23.4773 13.459 23.4773C10.4098 23.4773 7.36059 23.4773 4.31138 23.4773C4.21974 23.4773 4.11978 23.4773 4.02813 23.4606C3.73654 23.4106 3.54492 23.2023 3.54492 22.9357C3.54492 22.6608 3.74487 22.4359 4.04479 22.3942C4.14477 22.3775 4.25307 22.3859 4.35304 22.3859C5.88598 22.3942 7.40225 22.3942 8.91852 22.3942Z" fill="white"/>
<path d="M8.11064 25.0685C9.4103 25.0685 10.71 25.0685 12.0096 25.0685C12.4095 25.0685 12.6428 25.2935 12.6095 25.6517C12.5845 25.9516 12.3845 26.1266 12.0263 26.1349C11.2598 26.1432 10.485 26.1349 9.71855 26.1349C7.92735 26.1349 6.13614 26.1349 4.34494 26.1349C4.24497 26.1349 4.13667 26.1349 4.0367 26.1266C3.75344 26.1016 3.55349 25.885 3.54515 25.61C3.53682 25.3351 3.75343 25.0852 4.04502 25.0685C4.35328 25.0519 4.66986 25.0602 4.97811 25.0602C6.02784 25.0685 7.06924 25.0685 8.11064 25.0685Z" fill="white"/>
</svg>
