<svg width="35" height="35" viewBox="0 0 35 35" fill="none" xmlns="http://www.w3.org/2000/svg">
<circle cx="17.5" cy="17.5" r="17" fill="white" stroke="#E84E72"/>
<path d="M14.8333 23.4H15.6667V17.475H14.8333C14.3731 17.475 14 17.1077 14 16.6547V14.6953C14 14.2423 14.3731 13.875 14.8333 13.875H19.5C19.9602 13.875 20.3333 14.2423 20.3333 14.6953V23.4H21.1667C21.6269 23.4 22 23.7673 22 24.2203V26.1797C22 26.6327 21.6269 27 21.1667 27H14.8333C14.3731 27 14 26.6327 14 26.1797V24.2203C14 23.7673 14.3731 23.4 14.8333 23.4ZM18 6C16.3431 6 15 7.32214 15 8.95312C15 10.5841 16.3431 11.9062 18 11.9062C19.6569 11.9062 21 10.5841 21 8.95312C21 7.32214 19.6568 6 18 6Z" fill="#E84E72"/>
</svg>
