<svg width="17" height="14" viewBox="0 0 17 14" fill="none" xmlns="http://www.w3.org/2000/svg">
<path d="M16.502 9.59546H15.5059C15.2306 9.59546 15.0078 9.3727 15.0078 9.09741V5.11304C15.0078 4.83775 15.2306 4.61499 15.5059 4.61499H16.502C16.7772 4.61499 17 4.83775 17 5.11304V9.09741C17 9.3727 16.7772 9.59546 16.502 9.59546Z" fill="#A1A1A1"/>
<path d="M0.498047 0.630615H1.49414C1.76943 0.630615 1.99219 0.853375 1.99219 1.12866V13.0818C1.99219 13.3571 1.76943 13.5798 1.49414 13.5798H0.498047C0.22276 13.5798 0 13.3571 0 13.0818V1.12866C0 0.853375 0.22276 0.630615 0.498047 0.630615Z" fill="#A1A1A1"/>
<path d="M12.2762 9.88532C12.5359 10.6664 12.1118 11.5142 11.3307 11.7749L7.24416 13.1367C6.46299 13.3988 5.61555 12.9759 5.35364 12.1922L5.19622 11.7195L2.98828 12.4444V1.76599L14.0117 5.4183V8.79217L12.1182 9.41224L12.2762 9.88532ZM6.29867 11.877C6.38712 12.1405 6.66862 12.2773 6.92899 12.1922L11.0155 10.8303C11.2762 10.7433 11.4177 10.4602 11.3312 10.2L11.1734 9.72714L6.14155 11.4045L6.29867 11.877Z" fill="#A1A1A1"/>
</svg>
