<svg width="17" height="18" viewBox="0 0 17 18" fill="none" xmlns="http://www.w3.org/2000/svg">
<g clip-path="url(#clip0_2_619)">
<path d="M16.502 11.5955H15.5059C15.2306 11.5955 15.0078 11.3727 15.0078 11.0974V7.11304C15.0078 6.83775 15.2306 6.61499 15.5059 6.61499H16.502C16.7773 6.61499 17 6.83775 17 7.11304V11.0974C17 11.3727 16.7773 11.5955 16.502 11.5955Z" fill="white"/>
<path d="M0.497986 2.63062H1.49408C1.76937 2.63062 1.99213 2.85337 1.99213 3.12866V15.0818C1.99213 15.3571 1.76937 15.5798 1.49408 15.5798H0.497986C0.222699 15.5798 -6.10352e-05 15.3571 -6.10352e-05 15.0818V3.12866C-6.10352e-05 2.85337 0.222699 2.63062 0.497986 2.63062Z" fill="white"/>
<path d="M12.2763 11.8853C12.536 12.6664 12.1119 13.5142 11.3307 13.7749L7.24422 15.1367C6.46305 15.3988 5.61561 14.9759 5.3537 14.1922L5.19628 13.7195L2.98834 14.4444V3.76599L14.0118 7.4183V10.7922L12.1183 11.4122L12.2763 11.8853ZM6.29873 13.877C6.38718 14.1405 6.66868 14.2773 6.92906 14.1922L11.0156 12.8303C11.2763 12.7433 11.4178 12.4602 11.3312 12.2L11.1735 11.7271L6.14161 13.4045L6.29873 13.877Z" fill="white"/>
</g>
<defs>
<clipPath id="clip0_2_619">
<rect width="17" height="17" fill="white" transform="matrix(-1 0 0 1 17 0.605225)"/>
</clipPath>
</defs>
</svg>
