<svg width="17" height="30" viewBox="0 0 17 30" fill="none" xmlns="http://www.w3.org/2000/svg">
<g clip-path="url(#clip0_811_2267)">
<path fill-rule="evenodd" clip-rule="evenodd" d="M3.60441 13.384V13.3132H3.55664L3.55791 13.3584L3.60441 13.384Z" fill="white" stroke="white" stroke-width="0.09" stroke-linecap="round" stroke-linejoin="round"/>
<path fill-rule="evenodd" clip-rule="evenodd" d="M3.67515 13.4785L3.60352 13.4077L3.67515 13.4785Z" fill="white" stroke="white" stroke-width="0.09" stroke-linecap="round" stroke-linejoin="round"/>
<path fill-rule="evenodd" clip-rule="evenodd" d="M5.87197 14.1763H5.82422H5.87197Z" fill="white" stroke="white" stroke-width="0.09" stroke-linecap="round" stroke-linejoin="round"/>
<path fill-rule="evenodd" clip-rule="evenodd" d="M3.55585 13.3133H3.60362V13.3841V13.4076L3.67526 13.4784L3.7469 13.6198V13.667V13.9027C3.7469 13.9846 3.79467 13.9387 3.79467 14.0206L3.80183 14.0913L3.78936 14.4928L3.81855 14.7042H3.65138C3.66672 14.7674 3.67526 14.7487 3.67526 14.7985V14.8457C3.6593 14.8754 3.6275 14.9236 3.6275 14.9635C3.6275 15.0082 3.79467 15.0512 3.79467 15.1521V15.1757C3.79467 15.2709 3.79907 15.1859 3.77079 15.2229C3.78714 15.2516 3.79467 15.2481 3.79467 15.2936V15.3643C3.79467 15.4384 3.89019 15.4549 3.89019 15.6472C4.14169 15.6527 3.88561 15.747 4.10512 15.7651C4.15155 15.8917 4.20981 15.7926 4.29616 15.9537C4.28368 16.0065 4.27228 16.0079 4.27228 16.0715C4.27228 16.132 4.26655 16.1285 4.2484 16.1658C4.25702 16.1836 4.32004 16.3056 4.32004 16.3073C4.32004 16.3677 4.31429 16.3643 4.29616 16.4016C4.36358 16.5403 4.3754 16.5614 4.42191 16.7345L4.36781 16.8495C4.43185 16.8344 4.41282 16.8259 4.46333 16.8259C4.49962 16.8259 4.53975 16.8416 4.54027 16.8738L4.5111 17.0852C4.60621 17.093 4.58898 17.0948 4.63049 17.156C4.62428 17.2297 4.60661 17.2397 4.60661 17.321C4.60661 17.3973 4.69574 17.4577 4.7499 17.486C4.72852 17.5766 4.71817 17.665 4.66088 17.7282C4.61905 17.7743 4.54965 17.9103 4.5111 17.9103C4.4466 17.9103 4.44525 17.8991 4.39169 17.8868C4.37532 17.9155 4.36781 17.912 4.36781 17.9575V18.0046V18.0518C4.30193 18.1747 4.35023 18.1511 4.22452 18.2168V18.2639V18.3111C4.22452 18.3958 4.11907 18.4203 4.05735 18.4525V18.4997V18.5468C4.05735 18.6498 3.94258 18.6012 3.93624 18.8018L3.86631 18.8297V18.924C3.73202 18.9942 3.79524 19.0112 3.71377 19.0563C3.59239 19.1236 3.61759 19.0701 3.57973 19.2305H3.46033C3.42125 19.2305 3.3887 19.2446 3.3887 19.2776C3.3887 19.2917 3.42165 19.3265 3.43645 19.3484C3.38792 19.4482 3.39804 19.4292 3.34093 19.5134H3.29317H3.22153C3.1851 19.6481 3.17099 19.5334 3.07849 19.6315C3.03131 19.6815 3.00698 19.747 2.93495 19.7727V19.9377L3.00042 19.9385L3.03048 20.1263C2.90877 20.3057 2.84986 20.7954 2.67226 20.81C2.63679 20.9603 2.57002 21.066 2.5051 21.1872H2.40957L2.40193 21.1122L2.36181 21.1872C2.40206 21.2148 2.40957 21.1905 2.40957 21.2579C2.40957 21.3297 2.42043 21.3441 2.43791 21.401L2.40957 21.47C2.43084 21.4818 2.45734 21.4854 2.45734 21.5172C2.45734 21.5552 2.389 21.6315 2.36181 21.6822V21.7294C2.36181 21.8106 2.37948 21.8207 2.3862 21.8957L2.31405 21.918C2.31214 22.0031 2.21822 22.3316 2.17077 22.3659C2.16838 22.4715 2.13957 22.5787 2.07525 22.6252V22.7195C2.04723 22.7268 2.01015 22.7431 2.0036 22.7431C1.9489 22.7431 1.97583 22.7351 1.91253 22.7212L1.8842 22.7902L1.86831 22.8378L1.8842 23.2617C1.88657 23.3486 1.88991 23.2735 1.86031 23.3324C1.87229 23.3495 1.90947 23.3928 1.91412 23.4039L1.8842 23.6389C1.86978 23.7461 1.83643 23.6658 1.83643 23.7568V23.7803C1.83643 23.8408 1.84218 23.8373 1.85392 23.8734L1.83643 23.9925C1.79619 24.0201 1.78867 23.9959 1.78867 24.0632C1.78867 24.2858 1.93196 24.4885 1.93196 24.6762L1.93543 24.7232L1.93311 25.0767L1.95584 25.2184L1.90469 25.2188L1.92675 25.479L1.95453 25.5715L1.93196 25.6427C1.96109 25.6589 1.9575 25.6663 2.0036 25.6663H2.02748C2.11879 25.6663 2.03618 25.659 2.09901 25.6898L2.16947 25.5489L2.14689 25.4777C2.17169 25.4411 2.21854 25.3919 2.21854 25.3362V25.2891C2.20961 25.2724 2.14689 25.1733 2.14689 25.1712C2.14689 25.1082 2.18135 25.1015 2.21854 25.0769C2.20216 25.0482 2.19465 25.0517 2.19465 25.0062C2.19465 24.9161 2.18732 24.9976 2.21854 24.9355C2.18918 24.9113 2.19465 24.9739 2.19465 24.8883V24.8648C2.19465 24.8081 2.23334 24.7955 2.26628 24.7469C2.24993 24.7181 2.2424 24.7217 2.2424 24.6762C2.2424 24.6279 2.2916 24.6328 2.33793 24.629V24.5347C2.42509 24.4771 2.50542 24.42 2.65443 24.4176L2.63215 24.6568L2.67226 24.5819H2.72003C2.77356 24.5819 2.77245 24.6005 2.81554 24.629V24.7233C2.83736 24.7377 2.88719 24.7617 2.88719 24.794C2.88719 24.8545 2.88145 24.851 2.86331 24.8883C2.88003 24.9216 2.88719 24.9275 2.88719 24.9826V25.0062C2.88719 25.0846 2.93007 25.0752 3.00659 25.0769C3.01854 25.0979 3.02214 25.1241 3.05436 25.1241C3.1367 25.1241 3.14682 25.1066 3.2244 25.0971L3.29317 25.1477V25.2419C3.33342 25.2696 3.34093 25.2453 3.34093 25.3127C3.34093 25.3987 3.36236 25.3688 3.36531 25.479L3.29288 25.5014L3.34093 25.5956H3.43645C3.44419 25.6874 3.47906 25.7181 3.48487 25.7851C3.49195 25.8668 3.46033 25.8839 3.46033 25.9963C3.46033 26.0365 3.53137 26.2085 3.57973 26.2085C3.61856 26.2085 3.63541 26.144 3.65138 26.1142V26.067V25.9963V25.9492C3.62656 25.9029 3.60362 25.8797 3.60362 25.8077V25.7134H3.67526C3.75306 25.7134 3.76735 25.7803 3.79467 25.8313C3.91254 25.8339 3.91144 25.8328 3.91407 25.9492C3.98969 25.9762 3.9708 25.9947 4.01045 26.0673L3.9857 26.1849C4.05694 26.1908 4.10512 26.2019 4.10512 26.2792C4.10512 26.351 4.09427 26.3654 4.07856 26.423L4.20064 26.5857H4.27228C4.36359 26.5857 4.28097 26.5784 4.34393 26.6093C4.35587 26.5883 4.35947 26.5621 4.39169 26.5621C4.44522 26.5621 4.44411 26.5808 4.48721 26.6093V26.6564C4.48721 26.7766 4.55365 26.7689 4.58273 26.8921C4.68086 26.8841 4.63608 26.8686 4.72601 26.8686C4.8034 26.8686 4.71567 26.9207 4.82493 26.9633L4.79766 27.2222V27.4815H4.89318C4.96841 27.5829 4.9968 27.4763 5.03647 27.623C5.09264 27.6276 5.15588 27.6443 5.15588 27.6937C5.15588 27.7703 5.13518 27.7115 5.10812 27.8115C5.17216 27.7964 5.15313 27.788 5.20363 27.788C5.25658 27.788 5.21129 27.8476 5.34692 27.8587V28.0001L5.40656 28.0079L5.51409 28.1416C5.61565 28.1182 5.69716 28.1049 5.64864 28.2294L5.691 28.3366L5.7529 28.2359C5.74042 28.183 5.72902 28.1817 5.72902 28.118C5.72902 28.0751 5.76539 28.0802 5.80065 28.0709C5.78818 28.018 5.77678 28.0167 5.77678 27.953L5.77849 27.7924L5.84842 27.7644C5.89152 27.7929 5.89041 27.8115 5.94394 27.8115H5.96782H6.01558C6.04854 27.8601 6.08723 27.8727 6.08723 27.9294V27.9766C6.08723 28.0828 6.22451 28.1284 6.30216 28.1652C6.30262 28.1648 6.3467 28.1416 6.34992 28.1416C6.37966 28.1416 6.70348 28.3066 6.82754 28.3066C6.88048 28.3066 6.83519 28.247 6.97083 28.2359V28.283L7.07797 28.2793L7.18574 28.5895C7.17114 28.6514 7.12926 28.7309 7.23351 28.7309H7.30516C7.38964 28.7309 7.37736 28.6602 7.42456 28.6602C7.50753 28.6602 7.461 28.7074 7.54397 28.7074L7.70667 28.7091L7.73501 28.7781V28.8252L7.7343 28.8711L7.63948 28.9195C7.70638 29.0097 7.70241 28.9229 7.73501 29.061C7.72253 29.1139 7.71113 29.1152 7.71113 29.1789C7.71113 29.2425 7.72253 29.2439 7.73577 29.2972L7.66336 29.4146H7.6156L7.54804 29.4153L7.50987 29.5968L7.48426 29.6621L7.54397 29.7446C7.71962 29.7591 7.64381 29.81 7.75888 29.8861L7.85441 29.9332L7.89453 29.9267L8.00256 29.8377L7.97382 29.7211C8.00113 29.6701 8.01542 29.6032 8.09321 29.6032H8.14099C8.21418 29.6032 8.25779 29.5347 8.28427 29.4853H8.33202H8.42755C8.49926 29.4853 8.54688 29.391 8.6186 29.391H8.69025C8.76281 29.391 8.77132 29.4319 8.78576 29.4853H8.85741V29.6032C8.85741 29.6798 8.8781 29.621 8.90517 29.7211C8.94219 29.6966 8.99212 29.6503 9.04846 29.6503C9.09196 29.6503 9.0868 29.6863 9.09622 29.7211H9.16786C9.19085 29.6361 9.17003 29.658 9.26339 29.6503V29.556L9.35544 29.5532L9.40666 29.4853C9.40599 29.4845 9.3822 29.4415 9.37871 29.4375L9.40666 29.2496C9.45209 29.2315 9.50136 29.1557 9.55614 29.1142C9.60508 29.0772 9.69324 29.0177 9.69324 28.9431V28.8017V28.7545C9.521 28.6646 9.16249 28.3683 9.04225 28.2184C8.99196 28.1557 8.83991 27.9298 8.80656 27.8617C8.73254 27.7108 8.65773 27.6332 8.57084 27.5051H8.52308C8.41572 27.5051 8.34385 27.4344 8.2365 27.4344C8.18297 27.4344 8.18408 27.453 8.14098 27.4815C8.08742 27.4692 8.08608 27.4579 8.02158 27.4579C7.98113 27.4579 7.93233 27.4893 7.90217 27.5051L7.85423 27.5031L7.49619 27.5287C7.40199 27.5371 7.19114 27.3165 7.13799 27.3165H7.09022C6.92193 27.3165 6.7389 26.8565 6.604 26.7592C6.36061 26.5835 6.38816 26.3166 6.2544 26.067V26.0199V25.9963C6.2544 25.8537 6.11893 25.4848 6.09318 25.2882L6.06335 25.1005C6.0436 24.9786 6.0045 24.7767 5.97102 24.673C5.9457 24.5946 5.8525 24.3237 5.84842 24.2754C5.7952 24.2894 5.77677 24.2809 5.77677 24.3461V24.4404C5.61362 24.4368 5.5177 24.2941 5.51409 24.134C5.37457 24.0417 5.32518 24.0632 5.29989 23.8503C5.28005 23.6835 5.2514 23.5583 5.2514 23.3796V23.0731V23.026C5.2242 22.9752 5.15587 22.8989 5.15587 22.8609V22.7902L5.15507 22.7435L5.08278 22.5822L4.93923 22.5265L4.86759 22.5589L4.79766 22.5309C4.77426 22.5624 4.67049 22.6252 4.63049 22.6252H4.51109L4.4643 22.6257L4.39169 22.7666L4.34294 22.7606L4.17122 22.7997L4.03347 22.7195C3.97991 22.7318 3.97856 22.7431 3.91406 22.7431C3.8204 22.7431 3.79467 22.6264 3.79467 22.5309V22.4837C3.91919 22.4187 3.89531 22.4664 3.96183 22.3423C3.8677 22.2035 3.79467 22.1922 3.79467 21.9415C3.70206 21.9085 3.65138 21.7324 3.65138 21.6115V21.5172C3.65138 21.4508 3.66171 21.4735 3.69914 21.4465C3.68277 21.4177 3.67526 21.4213 3.67526 21.3758V21.3522C3.67526 21.257 3.67085 21.3419 3.69914 21.305C3.68277 21.2763 3.67526 21.2798 3.67526 21.2343V21.1872C3.67526 21.1089 3.72302 21.1379 3.72302 21.0929C3.72302 21.0851 3.65138 21.0062 3.65138 20.9043V20.8571C3.69015 20.8369 3.87697 20.6574 3.89018 20.6214H3.77079C3.71488 20.6214 3.67526 20.5823 3.67526 20.5271V20.3856C3.7393 20.3705 3.72027 20.3621 3.77079 20.3621C3.82432 20.3621 3.82321 20.3807 3.8658 20.4079L3.93795 20.3856C3.92579 20.2415 3.85718 20.3136 3.81855 20.1499C3.9243 20.0947 3.88199 20.1364 3.93795 20.032V19.9849V19.9613V19.9141C3.98832 19.8202 3.97745 19.7596 4.10512 19.7491C4.12479 19.6764 4.15005 19.6273 4.22011 19.6071L4.2484 19.3719H4.34393C4.383 19.3719 4.41557 19.3578 4.41557 19.3248C4.41557 19.2797 4.36781 19.3087 4.36781 19.2305V19.2069C4.36781 19.1465 4.37354 19.1499 4.39169 19.1126C4.37496 19.0793 4.36781 19.0735 4.36781 19.0183C4.36781 18.9465 4.35695 18.9321 4.34393 18.8769C4.3694 18.7689 4.3579 18.7658 4.44081 18.7067L4.53497 18.7354C4.5079 18.6354 4.4872 18.6942 4.4872 18.6176V18.429C4.58698 18.4027 4.67536 18.1563 4.67826 18.0282C4.80506 17.9365 4.82019 17.6668 5.00737 17.6497L5.03646 17.5567C5.0201 17.528 5.01259 17.5315 5.01259 17.486C5.01259 17.4515 5.04204 17.4514 5.06034 17.4389C5.04399 17.4101 5.03646 17.4136 5.03646 17.3681V17.321C5.11163 17.1808 5.10516 17.155 5.21571 17.0264C5.25146 16.9848 5.44244 16.7888 5.44244 16.7552C5.44244 16.7162 5.38828 16.6228 5.3708 16.5902V16.543V16.5194C5.3708 16.4666 5.38971 16.4677 5.41857 16.4252C5.39864 16.3408 5.3708 16.3144 5.3708 16.213V16.0951C5.3708 15.9876 5.31298 15.9173 5.3136 15.8578L5.3708 15.5293V15.4822C5.47211 15.2932 5.48268 15.1742 5.61011 14.9858L5.53266 14.9628L5.56185 14.8221C5.51291 14.7499 5.29915 14.618 5.29915 14.5392V14.4921V14.4449C5.59499 14.2904 5.59992 14.1149 6.08723 14.1149V14.162H6.13499L6.14159 14.0873L6.18275 14.1384L6.18342 14.0977L6.4932 14.0677H6.54096C6.56417 14.0556 6.6831 13.9734 6.68425 13.9734C6.71016 13.9734 6.73366 14.0207 6.78171 14.0422C6.83345 14.0654 6.85435 14.0592 6.92266 14.0708L7.35291 14.1149H7.3768C7.45622 14.1149 7.44673 14.1572 7.44844 14.2327H7.40068V14.2799H7.44844V14.3742L7.37475 14.3754L7.39551 14.4132L7.30516 14.4685C7.32521 14.5059 7.3768 14.5749 7.3768 14.6099V14.6571L7.38247 14.7078L7.23351 14.94C7.30474 14.9458 7.35291 14.9569 7.35291 15.0343V15.0814C7.35291 15.153 7.31149 15.1614 7.25739 15.1757V15.2464L7.19844 15.2546L7.30028 15.3655L7.33287 15.4847L7.25739 15.6001H7.16187V15.7179C7.16187 15.7746 7.20056 15.7872 7.23351 15.8358L7.32391 15.8408L7.40068 15.9065V15.8122C7.6198 15.6978 7.63881 15.7415 7.8783 15.7415H7.92605C8.08807 15.7415 8.22418 15.8266 8.33202 15.8829C8.35692 15.8462 8.36368 15.8122 8.42755 15.8122L8.45195 15.8177L8.8024 15.7833L8.88129 15.6708H8.92905H8.97681C9.16716 15.6708 9.29693 15.7851 9.31893 15.9435L9.43054 16.0244C9.45968 16.0082 9.45609 16.0008 9.50219 16.0008C9.59506 16.0008 9.59655 16.1 9.67174 16.1399C9.79802 16.207 9.7552 16.2099 9.8372 16.283C9.88536 16.326 10.1231 16.5565 10.1231 16.6137V16.6609C10.1231 16.6995 10.1374 16.7316 10.1708 16.7316C10.1851 16.7316 10.2204 16.6991 10.2425 16.6845C10.2804 16.7043 10.3503 16.7552 10.3858 16.7552C10.4701 16.7552 10.6133 16.8576 10.6724 16.8966V16.7552C10.6724 16.7097 10.7149 16.6609 10.744 16.6609C10.8014 16.6609 10.8142 16.6991 10.8634 16.7316V16.7788L10.873 16.8381L11.0067 16.9438V17.0381C11.133 17.1216 11.0532 17.1645 11.15 17.2031C11.1336 17.1744 11.1261 17.1779 11.1261 17.1324V17.0617C11.1261 16.9899 10.9756 16.9046 10.9808 16.8257L11.0067 16.4723V16.4252C11.0067 16.3528 11.0656 16.3232 11.1261 16.3073C11.0871 16.1631 10.9035 16.0764 10.8634 15.9065C10.736 15.896 10.7259 15.8122 10.6485 15.8122H10.5768C10.5706 15.7385 10.5529 15.7285 10.5529 15.6472C10.5529 15.5905 10.5916 15.5779 10.6246 15.5293C10.6045 15.4919 10.5529 15.4229 10.5529 15.3879V15.1521V15.105C10.5178 15.0394 10.4139 14.8965 10.4097 14.8457C10.3211 14.814 10.3073 14.6627 10.2664 14.5864V14.5392V14.5156C10.2664 14.4284 10.2701 14.4545 10.2425 14.3978C10.2555 14.3425 10.2664 14.3281 10.2664 14.2563L10.2719 14.2322L10.2455 13.9339L10.4097 13.8791V13.9499H10.5052C10.5882 13.9499 10.5387 13.908 10.6485 13.8791V13.9263C10.6843 13.9178 10.7201 13.9211 10.7201 13.8791C10.7201 13.8146 10.6724 13.8022 10.6724 13.7377C10.6724 13.6951 10.9715 13.5391 11.0306 13.5255V13.4312C11.0713 13.4043 11.1261 13.3799 11.1261 13.3133V13.2662C11.1261 13.1995 11.3061 13.0608 11.3888 13.054V12.9833C11.3888 12.9021 11.4226 12.8613 11.454 12.8195L11.4365 12.7004C11.5221 12.6779 11.6282 12.5969 11.6749 12.535C11.7236 12.4703 11.854 12.4379 11.938 12.3939L11.9863 12.3969L12.344 12.3468C12.4554 12.3283 12.3717 12.2996 12.4634 12.2996H12.5351C12.5955 12.2996 12.666 12.2053 12.75 12.2053L12.7984 12.2041L12.8933 12.2525C12.9079 12.231 12.9321 12.1818 12.9649 12.1818L13.0169 12.1807L13.0366 12.2761C13.1681 12.279 13.1587 12.3232 13.2276 12.3232C13.2888 12.3232 13.2853 12.3176 13.3231 12.2996C13.3723 12.3322 13.3851 12.3704 13.4425 12.3704C13.5424 12.3704 13.5048 12.3333 13.5865 12.3428L13.7769 12.3704C13.8189 12.3774 13.8382 12.3458 13.8733 12.3203L13.9727 12.3515L14.0174 12.2952L14.0873 12.3232C14.1994 12.2464 14.1193 12.3494 14.1623 12.242L14.3261 12.2996H14.3739H14.4216C14.5082 12.2996 14.5549 12.3194 14.6067 12.3281L14.7321 12.2996V12.3468C14.8654 12.3358 14.868 12.2289 14.947 12.2289C15.0383 12.2289 14.9557 12.2217 15.0187 12.2525C15.0478 12.2363 15.0442 12.2289 15.0903 12.2289C15.1816 12.2289 15.099 12.2217 15.1619 12.2525C15.1886 12.2349 15.2423 12.1818 15.2575 12.1818C15.3357 12.1818 15.3375 12.2102 15.353 12.2525C15.381 12.2452 15.4181 12.2289 15.4246 12.2289C15.4651 12.2289 15.5139 12.2603 15.544 12.2761H15.5918H15.6396C15.6946 12.2761 15.7112 12.2925 15.7112 12.3468C15.7112 12.4105 15.6998 12.4118 15.6873 12.4647C15.8113 12.509 15.7179 12.6297 15.8545 12.6297H15.8784C15.956 12.6297 15.8964 12.6093 15.9978 12.5825C15.9997 12.4979 16.0067 12.3704 16.0933 12.3704C16.2294 12.3704 16.3377 12.2761 16.3799 12.2761H16.4038H16.4515C16.5286 12.1624 16.5305 12.2565 16.6332 12.1018C16.6697 12.0468 16.7743 11.9512 16.7679 11.8744L16.7381 11.6867C16.7296 11.6344 16.7477 11.6217 16.762 11.5924C16.7452 11.5591 16.7381 11.5533 16.7381 11.4981V11.4038C16.8364 11.3779 16.7936 11.3566 16.8575 11.2624C16.8411 11.2336 16.8336 11.2372 16.8336 11.1917C16.8336 11.1759 16.9088 11.1037 16.9291 11.0738C16.8609 11.0558 16.7929 10.9922 16.7858 10.9088C16.7222 10.892 16.6426 10.8425 16.6426 10.7673V10.7437C16.6426 10.6783 16.7626 10.5178 16.8814 10.508V10.4137H16.762C16.6975 10.4137 16.6961 10.4024 16.6426 10.3901C16.6447 10.2961 16.6536 10.3028 16.6903 10.2487H16.7381C16.8186 10.2487 16.9053 10.207 16.9053 10.1308V9.96579C16.9053 9.88389 16.953 9.92981 16.953 9.84792C16.953 9.78425 16.9644 9.78291 16.9769 9.73004C16.9245 9.65288 16.9144 9.69726 16.8997 9.59812L16.7612 9.5143L16.6187 9.54145C16.5549 9.49929 16.5263 9.42672 16.4515 9.40001C16.4487 9.2727 16.3799 9.21568 16.3799 9.18783C16.3799 9.11678 16.4598 9.03617 16.4993 8.99924C16.4018 8.99124 16.3249 8.95689 16.228 8.93701C16.1528 8.9216 15.9515 8.85779 15.95 8.85779C15.8629 8.85779 15.8931 8.83664 15.7876 8.8295L15.7351 8.78708C15.7326 8.67822 15.7112 8.70805 15.7112 8.62205L15.7194 8.56817L15.544 8.33916C15.3964 8.32703 15.4548 8.21523 15.3603 8.11976C15.2658 8.02426 15.2139 8.05621 15.1381 7.91483L15.1344 7.86711L15.1879 7.56064L15.1381 7.39619C15.1825 7.20788 15.1142 7.1502 15.1142 6.97185C15.1142 6.89808 15.2814 6.69945 15.2814 6.52393V6.28819V6.24105C15.1439 5.98457 14.9949 5.88713 14.7241 5.75384C14.6038 5.69461 14.4985 5.61805 14.4479 5.50793C14.3317 5.25542 14.3851 5.36904 14.159 5.25092V5.20378C14.159 5.05425 13.9491 4.86898 13.8659 4.76227C13.7599 4.62626 13.7174 4.41069 13.5619 4.30796C13.5105 4.3348 13.4333 4.40225 13.3948 4.40225C13.3222 4.40225 13.3137 4.36135 13.2992 4.30796H13.1082C12.9923 4.30796 12.839 4.11935 12.5828 4.11935H12.5589L12.5105 4.12064L12.4173 4.07832L12.2246 4.11935C12.1718 4.21791 12.156 4.17042 12.1291 4.28438C12.1649 4.29285 12.2007 4.28956 12.2007 4.33152L12.2021 4.38275L11.9637 4.45039L11.9205 4.51892L11.932 4.62935L11.7741 4.73271L11.7483 4.8261L11.7729 4.89847L11.6992 5.03876C11.5619 5.03573 11.5538 4.96803 11.5082 4.96803C11.349 4.96803 11.1248 5.1892 10.9589 5.22735C10.9533 5.2939 10.9595 5.32165 10.8873 5.32165H10.7918C10.7527 5.32165 10.7201 5.30753 10.7201 5.27449C10.7201 5.26083 10.7812 5.13123 10.7841 5.1137L10.744 5.03876H10.6962H10.4813C10.4163 5.03876 10.3387 4.94451 10.2915 4.91964C10.1912 4.86673 10.1563 4.93573 10.0748 4.82714C10.0006 4.72835 9.96546 4.73734 9.91295 4.68041C9.81316 4.5722 9.97306 4.60256 9.71711 4.54369C9.62442 4.60498 9.41646 4.89731 9.31114 4.89731C9.20842 4.89731 9.18169 4.86982 9.09621 4.85015C9.0711 4.89699 9.00069 5.04591 9.00069 5.10947C9.00069 5.18713 8.92786 5.18021 8.85741 5.18021H8.83352H8.78576C8.76164 5.21575 8.67724 5.2965 8.64247 5.32165L8.64487 5.425L8.45144 5.4631V5.51024H8.37979H8.33202C8.22772 5.70483 8.21009 5.61796 8.09844 5.72758C7.99485 5.82927 8.0438 5.91901 7.85441 5.93458C7.8488 6.00114 7.85496 6.02888 7.78277 6.02888H7.68724C7.64888 5.93506 7.48246 5.90207 7.42455 5.81671C7.43703 5.76384 7.44843 5.7625 7.44843 5.69883V5.65169C7.46439 5.62192 7.49619 5.57374 7.49619 5.53381C7.49619 5.51974 7.46323 5.4849 7.45654 5.46427L7.47231 5.32165L7.54908 5.32069L7.52007 5.15663C7.61069 5.1137 7.65411 5.14111 7.69132 5.04278C7.72718 4.94799 7.6971 4.90827 7.8367 4.89649L7.80665 4.70871C7.83421 4.652 7.83053 4.67805 7.83053 4.59084C7.83053 4.50071 7.8232 4.58226 7.85441 4.52012H7.80665V4.3551C7.80665 4.26497 7.79932 4.34651 7.83053 4.28438C7.7618 4.26626 7.59172 4.17789 7.59172 4.09578C7.59172 3.98971 7.759 3.88376 7.83053 3.83646V3.74217C7.9957 3.6559 7.93417 3.71662 8.01986 3.55796L7.94993 3.53L7.95082 3.48297L7.97381 3.27069V3.17638C7.97381 3.10199 8.03958 3.10274 8.07783 3.01976C8.10485 2.96117 8.07701 2.97642 8.11213 2.93574C8.13847 2.90522 8.18874 2.91561 8.18874 2.86992C8.18874 2.72728 7.97381 2.81771 7.97381 2.53988C7.97381 2.44975 7.96648 2.53129 7.99005 2.47338L7.94993 2.39843V2.35128V2.30413C7.94993 2.24551 7.89022 2.21548 7.85441 2.16269C7.9306 2.02055 7.85182 1.97783 8.02157 1.9741C8.02974 1.87722 8.04545 1.92143 8.04545 1.83265C8.04545 1.78711 8.00288 1.73835 7.97381 1.73835C7.89085 1.73835 7.93737 1.78549 7.85441 1.78549H7.73501C7.69652 1.78549 7.61922 1.71805 7.56784 1.69121H7.52007H7.3529C7.2616 1.69121 7.34421 1.69844 7.28127 1.66763C7.23957 1.7291 7.12646 1.92694 7.04246 1.92694C6.88823 1.92694 6.8768 1.83265 6.68425 1.83265V1.92694C6.53855 1.92694 6.45627 1.89544 6.40186 1.81015L6.42156 1.71478C6.32061 1.68817 6.30493 1.62581 6.30215 1.5026C6.26191 1.475 6.25439 1.49923 6.25439 1.43189L6.2561 1.36555L6.32603 1.33759L6.3308 1.248L6.37379 1.19614H6.42156L6.4888 1.19554L6.51708 0.960397V0.936826C6.51708 0.825292 6.58552 0.771815 6.58895 0.631497L6.44543 0.653937C6.42086 0.563088 6.31053 0.459993 6.23051 0.41819C6.22793 0.303939 6.14298 0.135301 6.03946 0.135301H5.96782C5.94685 0.22412 5.93452 0.314852 5.82454 0.323894V0.394619C5.82454 0.448932 5.80792 0.465333 5.75289 0.465333L5.70442 0.466623L5.6096 0.41819V0.371037V0.253169C5.6096 0.163039 5.60227 0.244593 5.63348 0.182454C5.52846 0.132699 5.42733 0.138145 5.39481 0.0183105L5.19039 0.0491258L5.10811 0.135301C5.10641 0.210848 5.11588 0.253169 5.03646 0.253169H4.9887C4.92747 0.253169 4.93099 0.2475 4.89317 0.229597C4.86656 0.247183 4.81285 0.300322 4.79766 0.300322C4.70545 0.300322 4.78744 0.267995 4.67765 0.257515L4.43944 0.229597C4.43944 0.441391 4.53497 0.438726 4.53497 0.512487V0.536058C4.53497 0.602733 4.35491 0.741116 4.29615 0.771805L4.2488 0.776235L3.96183 0.795376C3.92779 0.70256 3.95824 0.792785 3.88922 0.706145L3.7179 0.672453L3.65137 0.748222C3.45957 0.752442 3.55126 0.846019 3.4884 0.982901L3.50809 1.07828L3.45415 1.07909L3.48421 1.26686C3.46941 1.29447 3.36179 1.47903 3.34092 1.47903C3.27485 1.47903 3.28349 1.46084 3.26978 1.4096L3.19764 1.43189C3.18077 1.42307 3.08038 1.36116 3.07823 1.36116C2.98336 1.36116 3.00594 1.45546 2.91107 1.45546H2.81554H2.76778C2.70867 1.48634 2.69069 1.49163 2.61514 1.51695C2.53579 1.54356 2.49937 1.59691 2.48121 1.59691C2.41515 1.59691 2.42378 1.57872 2.40887 1.5249L2.31405 1.57333C2.25811 1.56047 2.24349 1.54976 2.17076 1.54976H2.05136L2.00289 1.54847L1.90807 1.59691H1.8603C1.78811 1.59691 1.79428 1.56916 1.78867 1.5026C1.65084 1.46628 1.728 1.38918 1.5325 1.36978L1.43654 1.33857L1.40657 1.5026C1.42152 1.56597 1.46885 1.66763 1.35881 1.66763H1.28716C1.28546 1.74317 1.29494 1.78549 1.21552 1.78549H1.12C1.0478 1.78549 1.05397 1.81324 1.04836 1.8798H1.09612C1.09134 2.09169 0.928949 2.04047 0.928949 2.16269V2.18626C0.928949 2.26967 1.0006 2.25755 1.0006 2.30413C1.0006 2.36934 0.982174 2.36083 0.928949 2.37487C0.959816 2.48898 1.02448 2.45367 1.02448 2.53988V2.7049V2.75205C0.937652 2.79741 0.851437 2.88245 0.809551 2.89349V2.96422L0.811288 3.015L0.690143 3.05851C0.722275 3.17728 0.771052 3.13074 0.833431 3.2471L0.829562 3.2948L0.88119 3.71859V3.76574C0.88119 3.82006 0.864577 3.83647 0.809551 3.83647H0.690143H0.642384C0.531057 3.89462 0.456953 3.93463 0.355519 3.99386L0.188652 4.00149C0.120925 3.87514 0.151321 3.85714 0.0214844 3.78932C0.0296943 3.88674 0.0516339 3.88755 0.117002 3.93076C0.119275 4.03143 0.136069 4.09203 0.212531 4.11935V4.28438C0.212531 4.34953 0.290279 4.39829 0.331939 4.42583C0.366804 4.37442 0.400919 4.28438 0.475216 4.28438C0.524776 4.28438 0.594625 4.35334 0.594625 4.37867C0.594625 4.45048 0.583767 4.4649 0.565311 4.52547L0.690143 4.63799V4.68514C0.690143 4.77115 0.711568 4.74131 0.714022 4.85015C0.773603 4.88955 0.809551 4.9417 0.809551 5.03876V5.0859C0.703797 5.14114 0.746101 5.09937 0.6913 5.20355L0.714022 5.34522C0.836581 5.37753 0.842744 5.47569 0.909903 5.5762C1.01661 5.73587 1.02457 5.68316 1.13637 5.77697C1.20861 5.83758 1.12132 5.82807 1.22384 5.9028C1.2726 5.93835 1.30653 5.94764 1.34998 5.99045C1.43722 6.0764 1.46452 6.16043 1.57374 6.21747V6.26462V6.33535H1.6215L1.63344 6.39428L1.69314 6.47679H1.76479C1.80563 6.62781 1.92707 6.56661 1.93726 6.77801L2.02747 6.87756H2.07524C2.16517 6.87756 2.12038 6.89307 2.21853 6.90113C2.24024 6.98141 2.27935 7.04442 2.36181 7.06615V7.16045C2.38306 7.17224 2.40956 7.17579 2.40956 7.20759C2.40956 7.24752 2.37776 7.2957 2.36181 7.32547C2.38306 7.33726 2.40956 7.34081 2.40956 7.37262C2.40956 7.4557 2.31405 7.46756 2.31405 7.51406C2.31405 7.58064 2.36885 7.60501 2.40956 7.63194V7.72622C2.52062 7.73535 2.52644 7.77907 2.52897 7.89126C2.56442 7.91689 2.67225 8.05112 2.67225 8.10342V8.12699C2.67225 8.21712 2.67959 8.13557 2.64838 8.19772C2.68242 8.24608 2.72002 8.30738 2.72002 8.38631V8.45703C2.85757 8.42077 2.7493 8.37912 2.86564 8.3179C2.94266 8.27737 2.98137 8.2674 3.00658 8.17415L3.19741 8.1742L3.2454 8.36274C3.23291 8.41561 3.22152 8.41693 3.22152 8.48061V8.52776C3.16989 8.55473 3.10211 8.56883 3.10211 8.64563V8.66921L3.1081 8.72076L3.00658 8.83422C2.95066 8.82135 2.93604 8.81065 2.86331 8.81065C2.79881 8.81065 2.79747 8.79939 2.7439 8.78708C2.68423 8.90983 2.75588 8.85989 2.62428 8.92936L2.50509 8.90494C2.52041 9.04313 2.60061 8.95401 2.60061 9.06997C2.60061 9.15186 2.55285 9.10594 2.55285 9.18783C2.55285 9.27086 2.59187 9.27315 2.56928 9.36821C2.54805 9.45759 2.50509 9.46008 2.50509 9.51788C2.50509 9.58967 2.49425 9.60411 2.48414 9.65885L2.50621 9.82428L2.52897 10.343C2.36616 10.3394 2.45446 10.2958 2.36181 10.2958H2.33793H2.29017C2.21372 10.3358 2.20386 10.3043 2.19464 10.4137C2.09946 10.4477 2.15584 10.4844 2.09911 10.4844C2.00918 10.4844 2.05397 10.4689 1.96741 10.4703L1.8603 10.6023L1.76609 10.6018L1.79076 10.6736L1.73683 10.8417L1.81742 10.9335L1.78232 11.0531L1.83642 11.1681V11.2152V11.2388C1.83642 11.317 1.88419 11.288 1.88419 11.3331C1.88419 11.3871 1.87609 11.3605 1.8603 11.4274C1.93278 11.4533 2.11438 11.7599 2.29017 11.8517V11.8989V11.9932C2.44697 12.0061 2.46826 12.2683 2.57673 12.3468V12.4411H2.67225C2.75857 12.5574 2.75178 12.4115 2.79167 12.559C2.98771 12.5751 2.89688 12.7327 3.07823 12.7476C3.10393 12.8425 3.11897 12.8243 3.19654 12.8613L3.28122 12.8536L3.36481 12.9126L3.38114 12.9993L3.44657 13.1365L3.55585 13.2426V13.3133L3.55585 13.3133Z" fill="white" stroke="white" stroke-width="0.09" stroke-linecap="round" stroke-linejoin="round"/>
<path fill-rule="evenodd" clip-rule="evenodd" d="M10.1235 16.9203C10.1235 17.0113 10.1474 16.9731 10.1474 17.0853C10.1474 17.1397 10.164 17.1561 10.219 17.1561H10.3862C10.3608 17.0486 10.2258 16.86 10.0996 16.8496C10.116 16.8784 10.1235 16.8748 10.1235 16.9203V16.9203Z" fill="white" stroke="white" stroke-width="0.09" stroke-linecap="round" stroke-linejoin="round"/>
<path fill-rule="evenodd" clip-rule="evenodd" d="M10.6016 17.7454H10.6493V17.8161C10.6493 17.8798 10.6379 17.8811 10.6268 17.9288L10.7146 17.9567L10.7462 17.7418L10.6016 17.6982V17.7454H10.6016Z" fill="white" stroke="white" stroke-width="0.09" stroke-linecap="round" stroke-linejoin="round"/>
<path fill-rule="evenodd" clip-rule="evenodd" d="M5.37109 21.588L5.39594 21.7244L5.56214 21.7531V21.6588V21.6116C5.55241 21.6065 5.46938 21.5645 5.46661 21.5645C5.46058 21.5645 5.37875 21.5851 5.37109 21.588H5.37109Z" fill="white" stroke="white" stroke-width="0.09" stroke-linecap="round" stroke-linejoin="round"/>
<path fill-rule="evenodd" clip-rule="evenodd" d="M5.32272 22.1301C5.32272 22.2252 5.32711 22.1403 5.29883 22.1772C5.31521 22.206 5.32272 22.2024 5.32272 22.2479L5.32248 22.3175L5.45407 22.2833L5.53764 22.2244V22.1301C5.53764 22.0772 5.55654 22.0783 5.5854 22.0358H5.48989C5.40755 22.0358 5.39741 22.0183 5.32272 22.0122V22.1301V22.1301Z" fill="white" stroke="white" stroke-width="0.09" stroke-linecap="round" stroke-linejoin="round"/>
<path fill-rule="evenodd" clip-rule="evenodd" d="M2.52508 24.9801C2.48493 24.9735 2.43359 24.9491 2.43359 25.0063C2.43359 25.0329 2.52277 25.1278 2.553 25.1478V25.0771C2.553 24.9952 2.60076 25.0411 2.60076 24.9592L2.59102 24.8821L2.52508 24.9801H2.52508Z" fill="white" stroke="white" stroke-width="0.09" stroke-linecap="round" stroke-linejoin="round"/>
<path fill-rule="evenodd" clip-rule="evenodd" d="M4.63086 28.0238C4.68321 28.101 4.69335 28.0566 4.7025 28.1653H4.79803C4.79803 28.0205 4.78836 27.8502 4.7025 27.7881V27.906H4.65474L4.63086 28.0238H4.63086Z" fill="white" stroke="white" stroke-width="0.09" stroke-linecap="round" stroke-linejoin="round"/>
<path fill-rule="evenodd" clip-rule="evenodd" d="M7.85527 29.9334L7.75977 29.8862L7.77946 29.9816L7.85527 29.9334Z" fill="#FFD0A2" stroke="white" stroke-width="0.09" stroke-linecap="round" stroke-linejoin="round"/>
</g>
<defs>
<clipPath id="clip0_811_2267">
<rect width="17" height="30" fill="white"/>
</clipPath>
</defs>
</svg>
