<svg width="17" height="17" viewBox="0 0 17 17" fill="none" xmlns="http://www.w3.org/2000/svg">
<path d="M15.3588 3.14158H15.0063C14.636 3.14158 14.2809 3.28639 14.019 3.54415L11.1701 6.34861V4.51602C11.1701 3.75693 10.5449 3.14158 9.7738 3.14158H1.39626C0.625116 3.14158 0 3.75693 0 4.51602V12.7627C0 13.5218 0.625116 14.1371 1.39626 14.1371H9.7738C10.5449 14.1371 11.1701 13.5218 11.1701 12.7627V10.9301L14.019 13.7345C14.2809 13.9923 14.636 14.1371 15.0063 14.1371H15.3588C16.13 14.1371 16.7551 13.5218 16.7551 12.7627V4.51602C16.7551 3.75693 16.13 3.14158 15.3588 3.14158Z" fill="white"/>
</svg>
