<svg width="80" height="80" viewBox="0 0 80 80" fill="none" xmlns="http://www.w3.org/2000/svg">
<path fill-rule="evenodd" clip-rule="evenodd" d="M0 40C0 17.9086 17.9086 0 40 0C62.0914 0 80 17.9086 80 40C80 62.0914 62.0914 80 40 80C17.9086 80 0 62.0914 0 40Z" fill="#E84E72"/>
<path fill-rule="evenodd" clip-rule="evenodd" d="M40.6664 18.6404C27.0664 18.6404 16 27.5553 16 38.5133C16 48.3371 24.7754 56.5642 36.6291 58.12C37.4325 58.2918 38.5258 58.6458 38.8024 59.3275C39.0511 59.9467 38.965 60.9165 38.8818 61.5419C38.8818 61.5419 38.5924 63.2699 38.53 63.638C38.4227 64.2572 38.0345 66.0594 40.6664 64.9581C43.2993 63.8567 54.8721 56.6539 60.0472 50.7402C63.6211 46.8484 65.3333 42.8989 65.3333 38.5133C65.3333 27.5553 54.2683 18.6404 40.6664 18.6404Z" fill="white"/>
<path fill-rule="evenodd" clip-rule="evenodd" d="M33.8097 33.3333C33.5469 33.3333 33.3333 33.5538 33.3333 33.8247V44.8418C33.3333 45.1132 33.5469 45.3332 33.8097 45.3332H35.5239C35.7867 45.3332 35.9999 45.1132 35.9999 44.8418V33.8247C35.9999 33.5538 35.7867 33.3333 35.5239 33.3333H33.8097Z" fill="#E84E72"/>
<path fill-rule="evenodd" clip-rule="evenodd" d="M47.4988 33.3333H45.6943C45.4176 33.3333 45.1932 33.5538 45.1932 33.8247V40.37L40.0561 33.5518C40.0443 33.5344 40.031 33.5179 40.0172 33.5019L40.0137 33.499C40.0039 33.4879 39.994 33.4782 39.9836 33.4685C39.9807 33.4656 39.9777 33.4631 39.9743 33.4602C39.9659 33.4525 39.957 33.4452 39.9476 33.4384C39.9437 33.4346 39.9393 33.4316 39.9348 33.4283C39.9259 33.4224 39.9176 33.4161 39.9087 33.4108C39.9037 33.4074 39.8988 33.4045 39.8934 33.4021C39.8845 33.3967 39.8756 33.3914 39.8668 33.3871C39.8613 33.3846 39.8564 33.3817 39.851 33.3798C39.8416 33.3754 39.8322 33.3711 39.8224 33.3677C39.8165 33.3657 39.8115 33.3638 39.8061 33.3618C39.7962 33.3585 39.7864 33.3551 39.776 33.3526C39.7706 33.3507 39.7647 33.3497 39.7587 33.3478C39.7489 33.3459 39.7395 33.3434 39.7301 33.3415C39.7232 33.3405 39.7158 33.3396 39.7089 33.3391C39.7001 33.3371 39.6912 33.3366 39.6823 33.3357C39.6739 33.3347 39.6655 33.3347 39.6567 33.3342C39.6502 33.3342 39.6453 33.3333 39.6389 33.3333H37.8348C37.5581 33.3333 37.3333 33.5538 37.3333 33.8247V44.8418C37.3333 45.1132 37.5581 45.3332 37.8348 45.3332H39.6389C39.9161 45.3332 40.1405 45.1132 40.1405 44.8418V38.2984L45.2839 45.1253C45.3194 45.1748 45.3633 45.215 45.4112 45.247C45.4126 45.2479 45.4146 45.2494 45.4161 45.2508C45.4265 45.2571 45.4368 45.2634 45.4472 45.2693C45.4521 45.2722 45.4565 45.2741 45.4615 45.2765C45.4689 45.2809 45.4773 45.2848 45.4851 45.2882C45.4935 45.2916 45.5009 45.295 45.5098 45.2983C45.5147 45.3003 45.5197 45.3022 45.5246 45.3037C45.5364 45.308 45.5473 45.3114 45.5586 45.3148C45.5611 45.3148 45.5636 45.3158 45.566 45.3163C45.607 45.3269 45.6499 45.3332 45.6943 45.3332H47.4988C47.776 45.3332 47.9999 45.1132 47.9999 44.8418V33.8247C47.9999 33.5538 47.776 33.3333 47.4988 33.3333" fill="#E84E72"/>
<path fill-rule="evenodd" clip-rule="evenodd" d="M31.5127 42.5745H26.7349V33.8257C26.7349 33.5538 26.5163 33.3333 26.2471 33.3333H24.4883C24.2187 33.3333 24 33.5538 24 33.8257V44.8403V44.8413C24 44.9736 24.0524 45.0933 24.1365 45.1815C24.1384 45.184 24.1403 45.1864 24.1432 45.1888C24.1456 45.1912 24.148 45.1932 24.1504 45.1956C24.2384 45.2809 24.3566 45.3332 24.4878 45.3332H31.5127C31.7823 45.3332 32 45.1122 32 44.8403V43.0669C32 42.795 31.7823 42.5745 31.5127 42.5745" fill="#E84E72"/>
<path fill-rule="evenodd" clip-rule="evenodd" d="M56.8459 36.092C57.1155 36.092 57.3332 35.872 57.3332 35.5996V33.8262C57.3332 33.5543 57.1155 33.3333 56.8459 33.3333H49.8216H49.8207C49.689 33.3333 49.5703 33.3866 49.4823 33.4724C49.4804 33.4743 49.478 33.4757 49.4766 33.4777C49.4737 33.4806 49.4713 33.4835 49.4689 33.4864C49.3853 33.5746 49.3334 33.6938 49.3334 33.8257V33.8262V44.8408V44.8413C49.3334 44.9736 49.3858 45.0933 49.4699 45.1815C49.4718 45.184 49.4742 45.1869 49.4766 45.1888C49.4785 45.1912 49.4814 45.1937 49.4838 45.1956C49.5712 45.2804 49.6899 45.3332 49.8207 45.3332H56.8459C57.1155 45.3332 57.3332 45.1122 57.3332 44.8408V43.0669C57.3332 42.7955 57.1155 42.5745 56.8459 42.5745H52.0687V40.7124H56.8459C57.1155 40.7124 57.3332 40.4919 57.3332 40.22V38.4465C57.3332 38.1746 57.1155 37.9536 56.8459 37.9536H52.0687V36.092H56.8459Z" fill="#E84E72"/>
</svg>
