<svg width="80" height="80" viewBox="0 0 80 80" fill="none" xmlns="http://www.w3.org/2000/svg">
<path fill-rule="evenodd" clip-rule="evenodd" d="M0 40C0 17.9086 17.9086 0 40 0C62.0914 0 80 17.9086 80 40C80 62.0914 62.0914 80 40 80C17.9086 80 0 62.0914 0 40Z" fill="white"/>
<path fill-rule="evenodd" clip-rule="evenodd" d="M38.802 32.5125L38.8859 33.8966L37.487 33.7271C32.3948 33.0774 27.9461 30.8742 24.1689 27.1739L22.3223 25.3378L21.8466 26.6937C20.8394 29.7161 21.4829 32.908 23.5813 35.0547C24.7005 36.2411 24.4487 36.4106 22.5181 35.7044C21.8466 35.4784 21.2591 35.3089 21.2031 35.3937C21.0072 35.5914 21.6787 38.1619 22.2104 39.1787C22.9378 40.5911 24.4207 41.9752 26.0435 42.7943L27.4145 43.444L25.7917 43.4722C24.2249 43.4722 24.1689 43.5005 24.3368 44.0937C24.8964 45.9297 27.1067 47.8787 29.5689 48.7261L31.3036 49.3193L29.7927 50.2232C27.5544 51.5226 24.9243 52.257 22.2943 52.3135C21.0352 52.3417 20 52.4547 20 52.5394C20 52.8219 23.4135 54.4037 25.4 55.0252C31.3595 56.8612 38.4383 56.0703 43.7543 52.9349C47.5315 50.7034 51.3087 46.2687 53.0713 41.9752C54.0226 39.6872 54.9739 35.5067 54.9739 33.5011C54.9739 32.2018 55.0579 32.0323 56.6247 30.4787C57.548 29.5748 58.4154 28.5862 58.5832 28.3037C58.863 27.7671 58.8351 27.7671 57.4081 28.2472C55.0299 29.0946 54.6941 28.9817 55.8693 27.7106C56.7366 26.8067 57.7718 25.1683 57.7718 24.6882C57.7718 24.6034 57.3522 24.7446 56.8765 24.9989C56.3729 25.2813 55.2537 25.705 54.4143 25.9593L52.9035 26.4395L51.5325 25.5073C50.7771 24.9989 49.7139 24.4339 49.1543 24.2645C47.7273 23.869 45.545 23.9255 44.2579 24.3774C40.7605 25.6485 38.5502 28.9252 38.802 32.5125Z" fill="#E84E72"/>
</svg>
