<svg width="30" height="31" viewBox="0 0 30 31" fill="none" xmlns="http://www.w3.org/2000/svg">
<path fill-rule="evenodd" clip-rule="evenodd" d="M0 15.1177C0 6.83341 6.71573 0.117676 15 0.117676C23.2843 0.117676 30 6.83341 30 15.1177C30 23.402 23.2843 30.1177 15 30.1177C6.71573 30.1177 0 23.402 0 15.1177Z" fill="white"/>
<path fill-rule="evenodd" clip-rule="evenodd" d="M22.6656 11.4134C22.4816 10.7066 21.9394 10.1499 21.251 9.96101C20.0034 9.61768 15 9.61768 15 9.61768C15 9.61768 9.99663 9.61768 8.74891 9.96101C8.06045 10.1499 7.51827 10.7066 7.33427 11.4134C7 12.6946 7 15.3677 7 15.3677C7 15.3677 7 18.0407 7.33427 19.3219C7.51827 20.0288 8.06045 20.5854 8.74891 20.7744C9.99663 21.1177 15 21.1177 15 21.1177C15 21.1177 20.0034 21.1177 21.251 20.7744C21.9394 20.5854 22.4816 20.0288 22.6656 19.3219C23 18.0407 23 15.3677 23 15.3677C23 15.3677 23 12.6946 22.6656 11.4134Z" fill="#E84E72"/>
<path fill-rule="evenodd" clip-rule="evenodd" d="M13.5 18.1177V13.1177L17.5 15.6178L13.5 18.1177Z" fill="white"/>
</svg>
